<svg xmlns="http://www.w3.org/2000/svg" width="359" height="366.6" viewBox="0 0 359 366.6">
  <g id="empty_cart" transform="translate(-8 -166.291)">
    <g id="Artwork" transform="translate(20.388 279.108)">
      <g id="circle">
        <g id="Stroke_1" data-name="Stroke 1" transform="translate(9.094 124.028)">
          <path id="Path_53780" data-name="Path 53780" d="M812.652,556.39a1.41,1.41,0,0,1-1.409-1.409v-2.84a1.409,1.409,0,1,1,2.817,0v2.84A1.409,1.409,0,0,1,812.652,556.39Z" transform="translate(-811.243 -550.731)" fill="#d2d8df"/>
        </g>
        <g id="Group_8" data-name="Group 8" transform="translate(0 125.568)">
          <g id="Stroke_2" data-name="Stroke 2" transform="translate(2.714)">
            <path id="Path_53781" data-name="Path 53781" d="M808.359,557.535a1.4,1.4,0,0,1-1.011-.428l-2.321-2.389a1.408,1.408,0,1,1,2.021-1.963l2.321,2.389a1.41,1.41,0,0,1-1.01,2.391Z" transform="translate(-804.628 -552.328)" fill="#d2d8df"/>
          </g>
          <g id="Stroke_4" data-name="Stroke 4" transform="translate(0 6.36)">
            <path id="Path_53782" data-name="Path 53782" d="M806.5,561.74h-3.279a1.409,1.409,0,0,1,0-2.818H806.5a1.409,1.409,0,0,1,0,2.818Z" transform="translate(-801.814 -558.922)" fill="#d2d8df"/>
          </g>
          <g id="Stroke_6" data-name="Stroke 6" transform="translate(2.449 10.444)">
            <path id="Path_53783" data-name="Path 53783" d="M805.761,568.363a1.409,1.409,0,0,1-1.01-2.391l2.321-2.388a1.408,1.408,0,1,1,2.021,1.963l-2.321,2.388A1.406,1.406,0,0,1,805.761,568.363Z" transform="translate(-804.353 -563.156)" fill="#d2d8df"/>
          </g>
        </g>
        <g id="Stroke_9" data-name="Stroke 9" transform="translate(9.094 136.336)">
          <path id="Path_53784" data-name="Path 53784" d="M812.652,569.151a1.409,1.409,0,0,1-1.409-1.409V564.9a1.409,1.409,0,1,1,2.817,0v2.84A1.409,1.409,0,0,1,812.652,569.151Z" transform="translate(-811.243 -563.493)" fill="#d2d8df"/>
        </g>
        <g id="Stroke_10" data-name="Stroke 10" transform="translate(11.934 135.391)">
          <path id="Path_53785" data-name="Path 53785" d="M817.489,567.223a1.4,1.4,0,0,1-1-.412l-1.893-1.893a1.409,1.409,0,1,1,1.992-1.994l1.893,1.893a1.409,1.409,0,0,1-1,2.405Z" transform="translate(-814.188 -562.513)" fill="#d2d8df"/>
        </g>
        <g id="Stroke_11" data-name="Stroke 11" transform="translate(14.775 132.55)">
          <path id="Path_53786" data-name="Path 53786" d="M821.382,562.385h-2.84a1.409,1.409,0,0,1,0-2.818h2.84a1.409,1.409,0,0,1,0,2.818Z" transform="translate(-817.133 -559.567)" fill="#d2d8df"/>
        </g>
        <g id="Stroke_12" data-name="Stroke 12" transform="translate(13.827 125.923)">
          <path id="Path_53787" data-name="Path 53787" d="M817.559,557.406a1.41,1.41,0,0,1-1-2.405l1.893-1.893a1.409,1.409,0,0,1,1.992,1.993l-1.893,1.893A1.4,1.4,0,0,1,817.559,557.406Z" transform="translate(-816.151 -552.696)" fill="#d2d8df"/>
        </g>
        <g id="Stroke_13" data-name="Stroke 13" transform="translate(161.527)">
          <path id="Path_53788" data-name="Path 53788" d="M970.7,426.843a1.409,1.409,0,0,1-1.409-1.409v-1.893a1.409,1.409,0,0,1,2.818,0v1.893A1.409,1.409,0,0,1,970.7,426.843Z" transform="translate(-969.293 -422.133)" fill="#d2d8df"/>
        </g>
        <g id="Stroke_15" data-name="Stroke 15" transform="translate(155.845 5.681)">
          <path id="Path_53789" data-name="Path 53789" d="M966.7,430.84h-1.893a1.409,1.409,0,1,1,0-2.817H966.7a1.409,1.409,0,1,1,0,2.817Z" transform="translate(-963.402 -428.023)" fill="#d2d8df"/>
        </g>
        <g id="Stroke_16" data-name="Stroke 16" transform="translate(161.527 9.468)">
          <path id="Path_53790" data-name="Path 53790" d="M970.7,436.659a1.408,1.408,0,0,1-1.409-1.408v-1.893a1.409,1.409,0,0,1,2.818,0v1.893A1.408,1.408,0,0,1,970.7,436.659Z" transform="translate(-969.293 -431.95)" fill="#d2d8df"/>
        </g>
        <g id="Stroke_17" data-name="Stroke 17" transform="translate(164.366 5.681)">
          <path id="Path_53791" data-name="Path 53791" d="M975.539,430.84h-1.893a1.409,1.409,0,1,1,0-2.817h1.893a1.409,1.409,0,1,1,0,2.817Z" transform="translate(-972.237 -428.023)" fill="#d2d8df"/>
        </g>
        <g id="Stroke_18" data-name="Stroke 18" transform="translate(51.699 79.53)">
          <path id="Path_53792" data-name="Path 53792" d="M856.826,510.251a1.408,1.408,0,0,1-1.408-1.408V506a1.409,1.409,0,0,1,2.817,0v2.84A1.408,1.408,0,0,1,856.826,510.251Z" transform="translate(-855.418 -504.594)" fill="#d2d8df"/>
        </g>
        <g id="Stroke_19" data-name="Stroke 19" transform="translate(43.178 88.051)">
          <path id="Path_53793" data-name="Path 53793" d="M850.831,516.246h-2.84a1.409,1.409,0,0,1,0-2.817h2.84a1.409,1.409,0,1,1,0,2.817Z" transform="translate(-846.583 -513.429)" fill="#d2d8df"/>
        </g>
        <g id="Stroke_20" data-name="Stroke 20" transform="translate(51.699 92.785)">
          <path id="Path_53794" data-name="Path 53794" d="M856.826,523.995a1.409,1.409,0,0,1-1.408-1.409v-2.84a1.409,1.409,0,0,1,2.817,0v2.84A1.409,1.409,0,0,1,856.826,523.995Z" transform="translate(-855.418 -518.337)" fill="#d2d8df"/>
        </g>
        <g id="Stroke_21" data-name="Stroke 21" transform="translate(56.434 88.051)">
          <path id="Path_53795" data-name="Path 53795" d="M864.576,516.246h-2.839a1.409,1.409,0,1,1,0-2.817h2.839a1.409,1.409,0,1,1,0,2.817Z" transform="translate(-860.327 -513.429)" fill="#d2d8df"/>
        </g>
        <g id="Group_42" data-name="Group 42" transform="translate(25.91 26.202)">
          <g id="Stroke_22" data-name="Stroke 22" transform="translate(225.491 156.563)">
            <path id="Path_53796" data-name="Path 53796" d="M1067.986,622.649a5.509,5.509,0,0,1-5.507-5.506l2.818,0a2.69,2.69,0,0,0,2.689,2.69h0a2.69,2.69,0,1,0,0-5.38,1.409,1.409,0,0,1,0-2.818,5.508,5.508,0,0,1,0,11.016Z" transform="translate(-1062.479 -611.633)" fill="#d2d8df"/>
          </g>
          <path id="Fill_26" data-name="Fill 26" d="M1087.633,574.283c2.433-.764,6.163-3.735,7.026-6.936.786,2.83,4.065,6.173,7.026,6.43-3.333,1.181-6.521,4.686-7.026,7.441-.344-2.808-4.752-6.526-7.026-6.934" transform="translate(-837.882 -453.496)" fill="#ebecee"/>
          <path id="Fill_28" data-name="Fill 28" d="M828.679,611.662a5.972,5.972,0,0,0,3.513-3.472,4.8,4.8,0,0,0,3.513,3.215,5.839,5.839,0,0,0-3.513,3.72c-.172-1.4-2.376-3.264-3.513-3.463" transform="translate(-828.679 -454.948)" fill="#ebecee"/>
          <path id="Fill_30" data-name="Fill 30" d="M851.86,475.114a3.177,3.177,0,1,1-3.178-3.183,3.177,3.177,0,0,1,3.178,3.183v0" transform="translate(-829.277 -450.105)" fill="#d1d8df"/>
          <path id="Fill_32" data-name="Fill 32" d="M1071.69,483.879a5.311,5.311,0,1,1-5.31-5.312h0a5.313,5.313,0,0,1,5.31,5.312h0" transform="translate(-836.938 -450.341)" fill="#ebecee"/>
          <path id="Fill_34" data-name="Fill 34" d="M1148.044,469a4.212,4.212,0,1,1-4.212-4.214,4.213,4.213,0,0,1,4.212,4.214" transform="translate(-839.729 -449.851)" fill="#ebecee"/>
          <g id="Stroke_36" data-name="Stroke 36" transform="translate(26.012 219.452)">
            <path id="Path_53797" data-name="Path 53797" d="M859.712,684.968a4.065,4.065,0,1,1,4.065-4.063h0A4.07,4.07,0,0,1,859.712,684.968Zm0-5.311a1.247,1.247,0,1,0,1.248,1.247A1.247,1.247,0,0,0,859.712,679.657Zm2.657,1.248h0Z" transform="translate(-855.65 -676.839)" fill="#d2d8df"/>
          </g>
          <g id="Stroke_38" data-name="Stroke 38" transform="translate(72.622)">
            <path id="Path_53798" data-name="Path 53798" d="M908.563,458.472h-.009a4.586,4.586,0,1,1,4.594-4.585v.008A4.591,4.591,0,0,1,908.563,458.472Zm0-6.354a1.768,1.768,0,0,0,0,3.537h0a1.771,1.771,0,0,0,1.768-1.766v0A1.771,1.771,0,0,0,908.561,452.118Zm3.178,1.774h0Z" transform="translate(-903.977 -449.301)" fill="#d2d8df"/>
          </g>
          <g id="Stroke_40" data-name="Stroke 40" transform="translate(269.461 211.261)">
            <path id="Path_53799" data-name="Path 53799" d="M1113.41,679.038a5.359,5.359,0,1,1,1.9-.353h0A5.342,5.342,0,0,1,1113.41,679.038Zm0-7.872a2.526,2.526,0,1,0,.9,4.886h0a2.526,2.526,0,0,0-.9-4.886Z" transform="translate(-1108.07 -668.347)" fill="#d2d8df"/>
          </g>
        </g>
      </g>
    </g>
    <g id="Group_56402" data-name="Group 56402" transform="translate(8 166.291)">
      <path id="Path_22587" data-name="Path 22587" d="M188.982,758.471c4.98,9.235,15.548,13.2,15.548,13.2s2.5-11.009-2.485-20.244-15.548-13.2-15.548-13.2S184,749.236,188.982,758.471Z" transform="translate(-172.301 -472.899)" fill="#2f2e41"/>
      <path id="Path_22588" data-name="Path 22588" d="M172.1,775.505c8.99,5.409,12.453,16.153,12.453,16.153s-11.114,1.974-20.1-3.435S152,772.07,152,772.07,163.114,770.1,172.1,775.505Z" transform="translate(-152 -492.971)" fill="#03b0f5"/>
      <rect id="Rectangle_11507" data-name="Rectangle 11507" width="56.094" height="0.801" transform="translate(165.576 14.387)" fill="#f2f2f2"/>
      <rect id="Rectangle_11508" data-name="Rectangle 11508" width="0.801" height="7.412" transform="translate(205.643 14.988)" fill="#f2f2f2"/>
      <rect id="Rectangle_11509" data-name="Rectangle 11509" width="0.801" height="7.412" transform="translate(181.202 14.988)" fill="#f2f2f2"/>
      <rect id="Rectangle_11510" data-name="Rectangle 11510" width="56.094" height="0.801" transform="translate(194.024 52.852)" fill="#f2f2f2"/>
      <rect id="Rectangle_11511" data-name="Rectangle 11511" width="0.801" height="7.412" transform="translate(209.249 45.64)" fill="#f2f2f2"/>
      <rect id="Rectangle_11512" data-name="Rectangle 11512" width="0.801" height="7.412" transform="translate(233.69 45.64)" fill="#f2f2f2"/>
      <rect id="Rectangle_11513" data-name="Rectangle 11513" width="56.094" height="0.801" transform="translate(268.548 70.882)" fill="#f2f2f2"/>
      <rect id="Rectangle_11514" data-name="Rectangle 11514" width="0.801" height="7.412" transform="translate(283.773 63.67)" fill="#f2f2f2"/>
      <rect id="Rectangle_11515" data-name="Rectangle 11515" width="0.801" height="7.412" transform="translate(308.214 63.67)" fill="#f2f2f2"/>
      <rect id="Rectangle_11516" data-name="Rectangle 11516" width="56.094" height="0.801" transform="translate(262.939 256.792)" fill="#f2f2f2"/>
      <rect id="Rectangle_11517" data-name="Rectangle 11517" width="0.801" height="7.412" transform="translate(278.164 249.58)" fill="#f2f2f2"/>
      <rect id="Rectangle_11518" data-name="Rectangle 11518" width="0.801" height="7.412" transform="translate(302.605 249.58)" fill="#f2f2f2"/>
      <rect id="Rectangle_11519" data-name="Rectangle 11519" width="56.094" height="0.801" transform="translate(167.179 128.177)" fill="#f2f2f2"/>
      <rect id="Rectangle_11520" data-name="Rectangle 11520" width="0.801" height="7.412" transform="translate(182.404 120.965)" fill="#f2f2f2"/>
      <rect id="Rectangle_11521" data-name="Rectangle 11521" width="0.801" height="7.412" transform="translate(206.845 120.965)" fill="#f2f2f2"/>
      <rect id="Rectangle_11522" data-name="Rectangle 11522" width="56.094" height="0.801" transform="translate(184.808 224.739)" fill="#f2f2f2"/>
      <rect id="Rectangle_11523" data-name="Rectangle 11523" width="0.801" height="7.412" transform="translate(200.034 217.527)" fill="#f2f2f2"/>
      <rect id="Rectangle_11524" data-name="Rectangle 11524" width="0.801" height="7.412" transform="translate(224.474 217.527)" fill="#f2f2f2"/>
      <rect id="Rectangle_11525" data-name="Rectangle 11525" width="56.094" height="0.801" transform="translate(274.558 195.49)" fill="#f2f2f2"/>
      <rect id="Rectangle_11526" data-name="Rectangle 11526" width="0.801" height="7.412" transform="translate(289.784 188.278)" fill="#f2f2f2"/>
      <rect id="Rectangle_11527" data-name="Rectangle 11527" width="0.801" height="7.412" transform="translate(314.224 188.278)" fill="#f2f2f2"/>
      <path id="Path_22589" data-name="Path 22589" d="M220.147,638.153H125.274v-.682h94.19v-33.1H133.25l-4.188-8.725.615-.3,4,8.338h86.468Z" transform="translate(-75.081 -356.81)" fill="#2f2e41"/>
      <circle id="Ellipse_607" data-name="Ellipse 607" cx="7.167" cy="7.167" r="7.167" transform="translate(55.654 283.733)" fill="#3f3d56"/>
      <circle id="Ellipse_608" data-name="Ellipse 608" cx="7.167" cy="7.167" r="7.167" transform="translate(126.297 283.733)" fill="#3f3d56"/>
      <circle id="Ellipse_609" data-name="Ellipse 609" cx="4.436" cy="4.436" r="4.436" transform="translate(212.297 134.257)" fill="#3f3d56"/>
      <path id="Path_22590" data-name="Path 22590" d="M345.36,552.951H238.722l-23.074-75.42H369.122l-.14.444Zm-106.133-.682H344.859l23.333-74.056H216.571Z" transform="translate(-190.146 -316.655)" fill="#2f2e41"/>
      <path id="Path_22591" data-name="Path 22591" d="M196.19,479.9H102.527L82.26,413.015h134.8l-.123.394Z" transform="translate(-49.301 -247.532)" fill="#f2f2f2"/>
      <path id="Path_22592" data-name="Path 22592" d="M450.478,359.045l-.66-.175,4.5-16.976h26.2v.683H454.847Z" transform="translate(-269.59 -204.907)" fill="#2f2e41"/>
      <rect id="Rectangle_11528" data-name="Rectangle 11528" width="138.348" height="0.683" transform="translate(32.958 183.741)" fill="#2f2e41"/>
      <rect id="Rectangle_11529" data-name="Rectangle 11529" width="122.733" height="0.683" transform="translate(40.652 208.887)" fill="#2f2e41"/>
      <rect id="Rectangle_11530" data-name="Rectangle 11530" width="0.683" height="74.738" transform="translate(101.896 161.217)" fill="#2f2e41"/>
      <rect id="Rectangle_11531" data-name="Rectangle 11531" width="74.897" height="0.683" transform="matrix(0.065, -0.998, 0.998, 0.065, 128.238, 235.932)" fill="#2f2e41"/>
      <rect id="Rectangle_11532" data-name="Rectangle 11532" width="0.683" height="74.897" transform="translate(70.67 161.238) rotate(-3.729)" fill="#2f2e41"/>
      <rect id="Rectangle_11533" data-name="Rectangle 11533" width="359" height="0.801" transform="translate(0 298.499)" fill="#2f2e41"/>
      <path id="Path_22593" data-name="Path 22593" d="M747.411,136.185s5.857,16.67,2.253,19.235,12.165,23.51,12.165,23.51l18.923-5.129-10.363-17.525s-1.352-17.525-1.352-20.09S747.411,136.185,747.411,136.185Z" transform="translate(-508.848 -111.393)" fill="#a0616a"/>
      <path id="Path_22594" data-name="Path 22594" d="M747.411,136.185s5.857,16.67,2.253,19.235,12.165,23.51,12.165,23.51l18.923-5.129-10.363-17.525s-1.352-17.525-1.352-20.09S747.411,136.185,747.411,136.185Z" transform="translate(-508.848 -111.393)" opacity="0.1"/>
      <path id="Path_22595" data-name="Path 22595" d="M721.737,415.608s-1.71,21.372,0,32.486,4.275,41.89,4.275,41.89,0,58.133,9.4,58.987,16.243,1.71,17.1-1.71-4.274-5.129-1.71-6.839,3.42-7.694,0-14.533,0-76.085,0-76.085l16.243,43.6s1.71,35.905,3.42,41.035-1.71,14.533,4.274,15.388,12.823-4.274,16.243-5.984-5.129-1.71-3.42-2.565,6.839-3.42,5.129-4.274-3.42-41.89-3.42-41.89-4.7-87.626-10.686-91.045-9.831,2.47-9.831,2.47Z" transform="translate(-493.005 -271.987)" fill="#2f2e41"/>
      <path id="Path_22596" data-name="Path 22596" d="M756.164,758.784v6.839s-7.694,18.591,0,18.591,13.678,1.927,13.678-.638V760.494Z" transform="translate(-512.044 -485.219)" fill="#2f2e41"/>
      <path id="Path_22597" data-name="Path 22597" d="M866.7,758.754v6.839s7.694,18.591,0,18.591-13.678,1.926-13.678-.638V760.464Z" transform="translate(-572.146 -485.201)" fill="#2f2e41"/>
      <circle id="Ellipse_610" data-name="Ellipse 610" cx="15.388" cy="15.388" r="15.388" transform="translate(235.143 6.412)" fill="#a0616a"/>
      <path id="Path_22598" data-name="Path 22598" d="M762.99,201.9s4.274,12.823,11.114,10.259l6.839-2.565,11.969,82.07s-9.4,13.678-23.082,5.129S762.99,201.9,762.99,201.9Z" transform="translate(-517.16 -151.461)" fill="#03b0f5"/>
      <path id="Path_22599" data-name="Path 22599" d="M795.418,183.351l3.847-8.121s22.655,10.686,26.074,14.106,3.42,8.549,3.42,8.549l-5.984,21.372s1.71,47.019,1.71,48.729,5.984,11.114,1.71,7.694-5.129-6.839-8.549-1.71-11.114,11.114-11.114,11.114Z" transform="translate(-537.62 -135.477)" fill="#3f3d56"/>
      <path id="Path_22600" data-name="Path 22600" d="M847.615,349.122l-2.565,23.937s-15.388,13.678-11.969,14.533,5.129-2.565,5.129-2.565,5.984,5.984,9.4,2.565,11.968-35.905,11.968-35.905Z" transform="translate(-559.896 -239.696)" fill="#a0616a"/>
      <path id="Path_22601" data-name="Path 22601" d="M751.4,76.066c-3.411-.122-7.062-.182-9.938,1.656a14.548,14.548,0,0,0-3.435,3.362c-2.8,3.541-5.222,8-4.181,12.391L735.05,93a7.913,7.913,0,0,1-.763,3.39c.17-.495.74.305.587.806l-1.331,4.368a4.112,4.112,0,0,1,5.244,3.129c.152-5.073.678-10.89,4.794-13.86,2.075-1.5,4.7-1.955,7.229-2.361,2.331-.375,4.775-.732,7.008.036s4.134,3.051,3.628,5.357a2.387,2.387,0,0,1,2.69,1.326,6.963,6.963,0,0,1,.551,3.187c1.1.776,2.346-.765,2.794-2.032,1.05-2.975,1.983-6.141,1.418-9.245s-3.094-6.069-6.249-6.08a2.19,2.19,0,0,0,.57-1.542l-2.6-.22a2.874,2.874,0,0,0,1.717-.905C761.291,79.507,753.084,76.127,751.4,76.066Z" transform="translate(-500.536 -76.014)" fill="#2f2e41"/>
      <path id="Path_22602" data-name="Path 22602" d="M723.747,179.494s-6.959-6.82-9.464-6.4-5.924,6.4-5.924,6.4-20.517,6.839-19.662,13.678,10.259,40.18,10.259,40.18,7.694,40.18.855,44.454,32.486,15.388,33.341,10.259,2.565-56.423,0-64.117S723.747,179.494,723.747,179.494Z" transform="translate(-473.643 -134.185)" fill="#3f3d56"/>
      <path id="Path_22603" data-name="Path 22603" d="M850.893,223.236h10.571s7.382,32.486,8.237,35.906,2.565,19.662,1.71,19.662-17.953-3.42-17.953-.855Z" transform="translate(-570.868 -164.249)" fill="#3f3d56"/>
      <path id="Path_22604" data-name="Path 22604" d="M784.85,345.5H744.383c-3.949-18.166-4.279-35.718,0-52.488H784.85C778.32,309.482,777.912,326.913,784.85,345.5Z" transform="translate(-505.183 -206.069)" fill="#f2f2f2"/>
      <path id="Path_22605" data-name="Path 22605" d="M707.938,356.972l11.968,5.129s23.082,3.42,23.082-5.984-23.082-4.274-23.082-4.274l-7.694-2.46Z" transform="translate(-485.191 -239.852)" fill="#a0616a"/>
      <path id="Path_22606" data-name="Path 22606" d="M686.343,210.435,676.085,213l-7.694,45.309s-2.565,11.969,1.71,12.823,16.243,7.694,16.243,7.694S688.053,266,691.473,266l-8.549-6.839,5.129-29.921Z" transform="translate(-461.031 -156.577)" fill="#3f3d56"/>
      <rect id="Rectangle_11534" data-name="Rectangle 11534" width="56.094" height="0.801" transform="translate(24.14 141.4)" fill="#f2f2f2"/>
      <rect id="Rectangle_11535" data-name="Rectangle 11535" width="0.801" height="7.412" transform="translate(39.365 134.188)" fill="#f2f2f2"/>
      <rect id="Rectangle_11536" data-name="Rectangle 11536" width="0.801" height="7.412" transform="translate(63.806 134.188)" fill="#f2f2f2"/>
      <rect id="Rectangle_11537" data-name="Rectangle 11537" width="56.094" height="0.801" transform="translate(43.772 22.801)" fill="#f2f2f2"/>
      <rect id="Rectangle_11538" data-name="Rectangle 11538" width="0.801" height="7.412" transform="translate(83.84 23.402)" fill="#f2f2f2"/>
      <rect id="Rectangle_11539" data-name="Rectangle 11539" width="0.801" height="7.412" transform="translate(59.399 23.402)" fill="#f2f2f2"/>
      <rect id="Rectangle_11540" data-name="Rectangle 11540" width="56.094" height="0.801" transform="translate(100.267 101.733)" fill="#f2f2f2"/>
      <rect id="Rectangle_11541" data-name="Rectangle 11541" width="0.801" height="7.412" transform="translate(140.334 102.334)" fill="#f2f2f2"/>
      <rect id="Rectangle_11542" data-name="Rectangle 11542" width="0.801" height="7.412" transform="translate(115.893 102.334)" fill="#f2f2f2"/>
      <rect id="Rectangle_11543" data-name="Rectangle 11543" width="56.094" height="0.801" transform="translate(4.908 101.333)" fill="#f2f2f2"/>
      <rect id="Rectangle_11544" data-name="Rectangle 11544" width="0.801" height="7.412" transform="translate(44.974 101.934)" fill="#f2f2f2"/>
      <rect id="Rectangle_11545" data-name="Rectangle 11545" width="0.801" height="7.412" transform="translate(20.534 101.934)" fill="#f2f2f2"/>
      <rect id="Rectangle_11546" data-name="Rectangle 11546" width="56.094" height="0.801" transform="translate(72.22 61.266)" fill="#f2f2f2"/>
      <rect id="Rectangle_11547" data-name="Rectangle 11547" width="0.801" height="7.412" transform="translate(87.446 54.054)" fill="#f2f2f2"/>
      <rect id="Rectangle_11548" data-name="Rectangle 11548" width="0.801" height="7.412" transform="translate(111.887 54.054)" fill="#f2f2f2"/>
    </g>
  </g>
</svg>
