<svg id="Group_1" data-name="Group 1" xmlns="http://www.w3.org/2000/svg" width="137.357" height="62.9" viewBox="0 0 137.357 62.9">
  <path id="Path_1" data-name="Path 1" d="M366.836,174.1V162.575h18.247V157H342v5.575h17.233V181.1a24.639,24.639,0,0,1,7.6-7" transform="translate(-342 -157)" fill="#03ace9"/>
  <path id="Path_2" data-name="Path 2" d="M405.166,189.075c7.177,0,12.9,2.742,17.056,8.226l4.835-2.985a20.208,20.208,0,0,0-5.114-5.849,26.422,26.422,0,0,0-16.407-5.15,28.029,28.029,0,0,0-13.579,3.289,3.486,3.486,0,0,1-.907.466v7.233a20.816,20.816,0,0,1,14.141-5.205" transform="translate(-366.189 -169.977)" fill="#ef7f26"/>
  <path id="Path_3" data-name="Path 3" d="M393.688,237.723a20.816,20.816,0,0,1-10.213-2.489,16.584,16.584,0,0,1-5.515-4.607h-6.179V204.55c0,.537-.613,1.09-.953,1.662a24.592,24.592,0,0,0-3.381,12.757,22.849,22.849,0,0,0,7.694,17.628,26.187,26.187,0,0,0,18.247,6.751q14.937,0,22.048-10.644l-4.8-3.163a20.771,20.771,0,0,1-16.949,8.181" transform="translate(-354.549 -180.449)" fill="#ef7f26"/>
  <path id="Path_4" data-name="Path 4" d="M382.179,223.812c-.6-1.014-1.166-1.546-1.662-2.4a18.951,18.951,0,0,1-2.641-9.711,17.724,17.724,0,0,1,5.768-13.685c.025-.025-.041-.046-.041-.071V190.73a24.638,24.638,0,0,0-7.6,7v26.078Z" transform="translate(-358.767 -173.634)" fill="#ef7f26"/>
  <path id="Path_5" data-name="Path 5" d="M395.919,190.62c-11.789,0-21.349,9.306-21.349,20.781s9.559,20.781,21.349,20.781,21.349-9.311,21.349-20.781-9.554-20.781-21.349-20.781M414.241,211.4a11.168,11.168,0,0,1-.046,1.237l-10.066-1.972,2.484-1.11,7.547.2c.051.537.081,1.095.081,1.647m-8.763,4.952-2.109-1.657,10.446.547a17.5,17.5,0,0,1-.867,2.762Zm7.405,1.789a17.591,17.591,0,0,1-1.521,2.848l-5.621-4.425Zm-34.7-11.2a17.482,17.482,0,0,1,1.08-2.96l9.757,6.011-2.818.177Zm7.664,3.254-8.226.507a17.413,17.413,0,0,1,.507-3.619Zm24.755-9.463-9.088,5.286,1.135-2.59,5.9-4.937a17.91,17.91,0,0,1,2.027,2.245m-12.945,14.045.948.208-.03,1.723-1.333-1.308Zm-.507.507-.208-.2.375-.4.2.046Zm.284-.72.03-.03-.112-.1-.091.091-.76-.172-.036.147.679.152-.309.324-.623-.613a2.152,2.152,0,0,0,.309-.041l2.114.112v.39Zm1.6-1.779h-.071l-.157.071V212.8h-.147l.71-.471.182.2Zm-2.428-4.3.623-.507.2.426-.39.228a3.22,3.22,0,0,0-.431-.127m-1.328,0-.152-.071.152-.385.547.39a3.235,3.235,0,0,0-.547.066m-.39.112c-.106.041-.218.086-.324.137l.081-.38.289.137Zm-.507.228a3.071,3.071,0,0,0-.983.892h0l-.781-2.332,1.875.9Zm-1.374,1.728a2.924,2.924,0,0,0-.132.846q0,.106,0,.213l-.365.35-1.521-.948,2.027-.466Zm-.1,1.252a2.417,2.417,0,0,0,.081.38l-.035.046-.3-.188Zm.182.694a3.041,3.041,0,0,0,.3.563l-.669-.269.264-.36Zm.507.806a3.2,3.2,0,0,0,.35.345l-.076.593-2.463.355,1.242-1.678Zm.507.456a2,2,0,0,0,.228.157v.253l-.3.046Zm.385.248.223.112-.218.03Zm.507.218a2.728,2.728,0,0,0,.4.1l-.877.289v-.314Zm2.255-5.53.279-.162.2.426a2.721,2.721,0,0,0-.476-.264m.923.634h.041v.061l-.056-.061m.852,1.9a2.925,2.925,0,0,0-.041-.375l.243-1.014.436.086-.588,1.333Zm-.127-.715a3.041,3.041,0,0,0-.416-.821l.588.117Zm-.471-.983-.056-.2h.811l-.076.309Zm-.1-.35-.258-.963,1.617-.943-.471,1.931Zm-.157,0v.142l-.177-.162-.329-.71.274-.157Zm.507,3.654h.025V213l-.142.061.117-.177m.132-.274a2.789,2.789,0,0,0,.2-.674l.309.34Zm.259-.836.086-.218.573.446-.284.193Zm.152-.36.618-1.409,2.23.436-2.215,1.475Zm.684-1.551.193-.436,3.365.086-1.216.811Zm-.167-.03-.451-.091.076-.335h.558Zm-.335-.573.507-2.027,1.323-.77-1.242,2.833Zm.557-2.266.375-1.521,2.1-1.754-1.095,2.494Zm-.2.112-1.718,1.014-.162-.6,2.245-1.88Zm-1.85,1.08-.3.172-.208-.451.355-.294Zm-.583-.426-1.014-2.159.507-1.323.857,3.168Zm-.122.1-.76.639a1.988,1.988,0,0,0-.3-.025l-.76-.542.857-2.139Zm-1.946,0-.4-.274.679-3.269.608,1.308Zm-.061.152-.162.406-.314-.152.106-.507Zm-.618.182-2.022-1.014-.466-1.4,2.534,1.809Zm-1.292,1.6-.507.035-1.7-3.132,1.374.659Zm.051.152h0a2.486,2.486,0,0,0-.223.451l-.243-.441Zm-.37.507-2.124.507-1.328-.841,3.132-.2Zm-.507,1.668-.431.416-2.686-1.08,1.48-.345Zm.132.081.324.2-.279.375-.456-.182Zm-.051.71-1.353,1.723-1.439.208,2.266-2.169Zm-1.221,1.906,2.575-.375-.056.446-3.381,1.095Zm2.732-.4.324-.046v.34l-.39.127Zm.35.446.137,2.631-1.014,1.014.436-3.548Zm.142,2.833.081,1.521-1.424,2.134.314-2.534Zm0-2.879.963-.314-.041-.117h.076l.836,1.151-1.708,1.789Zm1.206-.4h.294l.725.7-.284.3Zm1.272-.167a3.082,3.082,0,0,0,1.358-.943l.258-.2v1.176Zm1.825-1.156.188-.081.218,1.353H398.8Zm.335-.147.507-.233,1.581,1.759-1.875-.1Zm.669-.3.446-.2,2.676,2.114-1.47-.081Zm-.106-.122-.2-.223.3-.2.314.243Zm.233-.507,2.3-1.521,1.429.279-3.386,1.521Zm2.473-1.647,1.272-.841,2.605.066-2.387,1.069Zm1.485-1.014,8.546-5.687a16.357,16.357,0,0,1,1.064,2.676l-6.9,3.082Zm-.259,0-3.523-.091,1.308-2.975,9.3-5.4a17.635,17.635,0,0,1,1.652,2.646Zm-.821-6.234,2.96-6.741a18.675,18.675,0,0,1,2.681,2.027Zm-.284.233-2.174,1.82,2.534-10.259a18.418,18.418,0,0,1,2.757,1.379Zm-2.413,1.962-2.352,1.967L396.887,204l3.913-9.787a17.524,17.524,0,0,1,1.911.623Zm-3.31-1.571-.694-2.57,1.556-7.532a18.3,18.3,0,0,1,2.965.507Zm-.1.238-.547,1.374-.649-1.374.507-2.494Zm-1.292-.218-4.465-9.544a19.015,19.015,0,0,1,2.965-.552l2.027,7.512Zm-.056.248-.7,3.406L392,205.537l-3.482-10.446a18.468,18.468,0,0,1,2.3-.816Zm-3.594,1.363-2.3-1.622-3.857-7.1a18.618,18.618,0,0,1,2.742-1.521Zm.081.243.507,1.46-1.429-.684-1.267-2.332Zm.7,4.146-3.274.208-9.944-6.143a17.86,17.86,0,0,1,1.277-2.22l10.167,4.906Zm-3.32.36,1.323.816-1.521.36-2.489-1.014Zm2.6,2.473-2.357,2.276-11.1,1.622a17.743,17.743,0,0,1-.558-2.438l11.2-2.6Zm-2.534,2.453-1.951,1.865-7.765,2.534a17.506,17.506,0,0,1-1.156-2.793Zm.253-.041,1.521-.218-.9,1.216-2.473.8Zm.7,1.125,3.512-1.135-.451,3.659-7.385,7.7a18.392,18.392,0,0,1-2.119-1.561Zm3.041,2.778-.324,2.641-4.217,6.249a18.755,18.755,0,0,1-2.676-1.368Zm-.36,2.975-.9,6.929a18.75,18.75,0,0,1-3.142-.953Zm.188-.284,1.475-2.21.507,9.818a19.768,19.768,0,0,1-2.874-.35Zm1.521-4.116,1.784-1.87.258.355-1.967,2.95Zm1.891-1.982.3-.314.228.218-.289.431Zm.644,0,1.414,1.389v1.419l-1.7-2.352Zm1.521,3.269,1.571,2.174,1.2,7.436a18.3,18.3,0,0,1-2.94.649Zm1.769,2.448,4.217,5.844a18.758,18.758,0,0,1-3.041,1.282Zm-.051-.329L400,218.3l7.258,7.1a18.583,18.583,0,0,1-2.438,1.581Zm-.2-.279-1.521-2.093.025-1.475,1.08,1.059Zm-1.485-3.776.03-1.84.568.127.441,2.727Zm.035-2v-.411l.446.025.081.507Zm.613-.38,1.992.106.958,1.064-2.864-.634Zm2.2.117,1.521.081,2.027,1.6-2.56-.563Zm1.6-.066-2.788-2.195,3.507-1.571,10.294,2.027a18.249,18.249,0,0,1-.34,2.311Zm3.756-5.119,6.589-2.95a17.453,17.453,0,0,1,.618,3.137Zm-9.407-15.778-1.521,7.218-1.951-7.192c.608-.061,1.227-.091,1.845-.091a12.3,12.3,0,0,1,1.6.066m-12.033,3.107,3.7,6.812-6.437-4.562a18.3,18.3,0,0,1,2.737-2.266m-2.849,2.377,6.716,4.744,1.313,2.418-9.975-4.795a17.764,17.764,0,0,1,1.946-2.367M377.6,210.838l8.561-.537,2.585,1.044-10.973,2.534a17.842,17.842,0,0,1-.182-2.534v-.537m2.027,8.708,7.451-2.408-5.53,5.307a17.853,17.853,0,0,1-1.921-2.9m2.027,3.016,5.763-5.53,2.57-.831-6.265,8.48a18.136,18.136,0,0,1-2.068-2.119m13.579,6.64-.507-10.041,2.027-3.072,1.784,2.473-.172,10.492a19.478,19.478,0,0,1-2.448.157h-.689m12.139-3.9-7.42-7.268-.466-2.879,3.011.669,6.878,7.664a17.914,17.914,0,0,1-2.027,1.815m2.108-1.926-6.7-7.451,2.666.593,5.869,4.622a17.407,17.407,0,0,1-1.8,2.281" transform="translate(-358.062 -173.58)" fill="#02abf7"/>
  <path id="Path_6" data-name="Path 6" d="M134.572,58.167H130.38V70.453h-2.843V58.167H123.36V55.81h11.212Z" transform="translate(-60.835 -27.523)" fill="#ef7f26"/>
  <path id="Path_7" data-name="Path 7" d="M499.4,226.669a9.159,9.159,0,0,1-4.136.806,6.924,6.924,0,0,1-5.19-1.982,7.27,7.27,0,0,1-1.931-5.292,7.76,7.76,0,0,1,2.159-5.667,7.42,7.42,0,0,1,5.54-2.2,9.66,9.66,0,0,1,3.548.568v2.762a6.589,6.589,0,0,0-3.381-.862,4.612,4.612,0,0,0-3.548,1.439A5.312,5.312,0,0,0,491.125,220a5.1,5.1,0,0,0,1.277,3.639,4.4,4.4,0,0,0,3.391,1.363,6.908,6.908,0,0,0,3.609-.953Z" transform="translate(-414.068 -184.286)" fill="#ef7f26"/>
  <rect id="Rectangle_1" data-name="Rectangle 1" width="5.58" height="1.987" transform="translate(87.731 36.286)" fill="#03b0f5"/>
  <path id="Path_8" data-name="Path 8" d="M532.27,227.442V212.8h4.982a6.012,6.012,0,0,1,3.548.9,2.889,2.889,0,0,1,1.272,2.509,3.147,3.147,0,0,1-.745,2.073,4.055,4.055,0,0,1-2.027,1.292h0a4.024,4.024,0,0,1,2.463,1.156,3.285,3.285,0,0,1,.917,2.367,3.888,3.888,0,0,1-1.414,3.148,5.738,5.738,0,0,1-3.781,1.171Zm2.833-12.464v3.837h1.521a2.686,2.686,0,0,0,1.789-.542,1.875,1.875,0,0,0,.644-1.521q0-1.769-2.534-1.769Zm0,6.026v4.258h1.951a2.975,2.975,0,0,0,1.951-.578,1.966,1.966,0,0,0,.694-1.6c0-1.384-.912-2.078-2.747-2.078Z" transform="translate(-435.831 -184.512)" fill="#03b0f5"/>
  <path id="Path_9" data-name="Path 9" d="M218.753,58.055h-1.292V68.213h1.292v2.24h-5.4v-2.24h1.272V58.055H213.35V55.81h5.4Z" transform="translate(-105.213 -27.523)" fill="#03b0f5"/>
  <path id="Path_10" data-name="Path 10" d="M581.937,227.453h-3.654l-4.663-6.437a5.153,5.153,0,0,1-.385-.715h-.051v7.152H570.35V212.81h2.833v6.924h.051a6.683,6.683,0,0,1,.4-.735l4.46-6.189H581.5l-5.454,6.995Z" transform="translate(-454.61 -184.523)" fill="#03b0f5"/>
  <path id="Path_11" data-name="Path 11" d="M262.755,70.453H254.28V55.81h8.145v2.357h-5.312V61.9h4.937v2.347h-4.937v3.862h5.641Z" transform="translate(-125.398 -27.523)" fill="#03b0f5"/>
  <path id="Path_12" data-name="Path 12" d="M139.3,91.686h-2.24v6.969H136.2V91.686h-2.23V90.9H139.3Z" transform="translate(-66.067 -44.827)" fill="#ef7f26"/>
  <path id="Path_13" data-name="Path 13" d="M492.611,255.209a4.446,4.446,0,0,1-2.134.466,3.421,3.421,0,0,1-2.636-1.08,3.938,3.938,0,0,1-1.014-2.783,4.166,4.166,0,0,1,1.1-2.96,3.715,3.715,0,0,1,2.838-1.176,4.531,4.531,0,0,1,1.825.319v.917a3.751,3.751,0,0,0-1.84-.456,2.783,2.783,0,0,0-2.2.933,3.477,3.477,0,0,0-.821,2.387,3.29,3.29,0,0,0,.77,2.266,2.626,2.626,0,0,0,2.068.872,3.852,3.852,0,0,0,2.027-.507Z" transform="translate(-413.42 -201.716)" fill="#ef7f26"/>
  <rect id="Rectangle_2" data-name="Rectangle 2" width="2.95" height="0.669" transform="translate(80.539 50.401)" fill="#ef7f26"/>
  <path id="Path_14" data-name="Path 14" d="M510.12,255.653V247.9h2.164a2.382,2.382,0,0,1,1.556.507,1.586,1.586,0,0,1,.593,1.287,1.9,1.9,0,0,1-.355,1.14,1.845,1.845,0,0,1-.978.664h0a1.916,1.916,0,0,1,1.252.593,1.83,1.83,0,0,1,.466,1.3,2.027,2.027,0,0,1-.7,1.657,2.625,2.625,0,0,1-1.784.618Zm.846-6.959v2.534h.943a1.779,1.779,0,0,0,1.206-.375,1.282,1.282,0,0,0,.426-1.014c0-.765-.507-1.145-1.521-1.145Zm0,3.33v2.838h1.257a1.885,1.885,0,0,0,1.257-.39,1.323,1.323,0,0,0,.451-1.054c0-.933-.639-1.394-1.911-1.394Z" transform="translate(-424.908 -201.826)" fill="#ef7f26"/>
  <path id="Path_15" data-name="Path 15" d="M181.4,91.65h-.765V97.9h.765v.745H179.02V97.9h.765V91.65h-.765V90.9H181.4Z" transform="translate(-88.283 -44.827)" fill="#ef7f26"/>
  <path id="Path_16" data-name="Path 16" d="M533.632,255.655h-1.206l-3.041-3.548a2.575,2.575,0,0,1-.208-.258h0v3.817h-.846V247.9h.846v3.644h0a1.763,1.763,0,0,1,.208-.253l2.95-3.391h1.059l-3.36,3.72Z" transform="translate(-433.888 -201.827)" fill="#ef7f26"/>
  <path id="Path_17" data-name="Path 17" d="M202.915,98.65H198.84V90.9h3.9v.786h-3.046v2.631H202.5V95.1h-2.813v2.778h3.224Z" transform="translate(-98.057 -44.827)" fill="#ef7f26"/>
  <path id="Path_18" data-name="Path 18" d="M551,261.708a.573.573,0,0,1,.172-.421.563.563,0,0,1,.405-.167.583.583,0,0,1,.406,1.014.542.542,0,0,1-.406.172.573.573,0,0,1-.578-.583" transform="translate(-445.068 -208.346)" fill="#ef7f26"/>
  <path id="Path_19" data-name="Path 19" d="M561.235,255.195a4.446,4.446,0,0,1-2.134.466,3.411,3.411,0,0,1-2.631-1.08,3.938,3.938,0,0,1-1.014-2.783,4.166,4.166,0,0,1,1.1-2.975,3.7,3.7,0,0,1,2.838-1.176,4.5,4.5,0,0,1,1.82.319v.917a3.721,3.721,0,0,0-1.835-.456,2.788,2.788,0,0,0-2.21.933,3.477,3.477,0,0,0-.821,2.387,3.269,3.269,0,0,0,.775,2.266,2.621,2.621,0,0,0,2.063.872,3.852,3.852,0,0,0,2.027-.507Z" transform="translate(-447.265 -201.701)" fill="#ef7f26"/>
  <path id="Path_20" data-name="Path 20" d="M568.663,251.741a4.273,4.273,0,0,1,1.014-2.98,3.5,3.5,0,0,1,2.742-1.115,3.3,3.3,0,0,1,2.58,1.09,4.055,4.055,0,0,1,.978,2.813,4.359,4.359,0,0,1-1.014,2.985,3.756,3.756,0,0,1-5.322.03,4.055,4.055,0,0,1-1.014-2.823m.9-.076a3.548,3.548,0,0,0,.74,2.311,2.438,2.438,0,0,0,1.982.907,2.59,2.59,0,0,0,2.063-.857,3.487,3.487,0,0,0,.74-2.352,3.644,3.644,0,0,0-.715-2.387,2.484,2.484,0,0,0-2.027-.862,2.534,2.534,0,0,0-2.027.912,3.512,3.512,0,0,0-.76,2.326" transform="translate(-453.76 -201.699)" fill="#ef7f26"/>
  <path id="Path_21" data-name="Path 21" d="M593.224,255.655v-5.236a11.706,11.706,0,0,1,.076-1.521h-.025a4.182,4.182,0,0,1-.223.73l-2.707,6h-.38l-2.7-5.961a3.707,3.707,0,0,1-.223-.77h0c0,.193.041.684.041,1.48v5.276h-.826V247.9h1.11l2.423,5.464a7.7,7.7,0,0,1,.365.912h.03q.076-.213.38-.943l2.479-5.433H594.1v7.755Z" transform="translate(-462.456 -201.827)" fill="#ef7f26"/>
</svg>
