<svg xmlns="http://www.w3.org/2000/svg" width="375" height="279.008" viewBox="0 0 375 279.008">
  <g id="Ecommerce_campaign-rafiki" data-name="Ecommerce campaign-rafiki" transform="translate(0 -55)">
    <g id="freepik--background-complete--inject-15" transform="translate(0 55)">
      <rect id="Rectangle_4" data-name="Rectangle 4" width="24.84" height="0.188" transform="translate(312.585 257.617)" fill="#ebebeb"/>
      <rect id="Rectangle_5" data-name="Rectangle 5" width="6.517" height="0.188" transform="translate(241.897 259.657)" fill="#ebebeb"/>
      <rect id="Rectangle_6" data-name="Rectangle 6" width="14.392" height="0.188" transform="translate(297.442 250.657)" fill="#ebebeb"/>
      <rect id="Rectangle_7" data-name="Rectangle 7" width="32.392" height="0.188" transform="translate(39.345 251.918)" fill="#ebebeb"/>
      <rect id="Rectangle_8" data-name="Rectangle 8" width="4.747" height="0.188" transform="translate(78.42 251.918)" fill="#ebebeb"/>
      <rect id="Rectangle_9" data-name="Rectangle 9" width="70.26" height="0.188" transform="translate(98.603 255.082)" fill="#ebebeb"/>
      <path id="Path_22" data-name="Path 22" d="M188.7,267.1H43.873a4.283,4.283,0,0,1-4.282-4.283V59.245A4.282,4.282,0,0,1,43.873,55H188.7a4.283,4.283,0,0,1,4.283,4.283V262.818A4.283,4.283,0,0,1,188.7,267.1ZM43.873,55.15a4.1,4.1,0,0,0-4.1,4.095V262.818a4.1,4.1,0,0,0,4.1,4.095H188.7a4.1,4.1,0,0,0,4.1-4.1V59.245a4.1,4.1,0,0,0-4.1-4.095Z" transform="translate(-9.898 -55)" fill="#ebebeb"/>
      <path id="Path_23" data-name="Path 23" d="M405,267.1H260.172a4.283,4.283,0,0,1-4.282-4.283V59.245A4.282,4.282,0,0,1,260.172,55H405a4.282,4.282,0,0,1,4.282,4.283V262.818A4.282,4.282,0,0,1,405,267.1ZM260.172,55.15a4.1,4.1,0,0,0-4.095,4.095V262.818a4.1,4.1,0,0,0,4.095,4.095H405a4.1,4.1,0,0,0,4.095-4.1V59.245A4.1,4.1,0,0,0,405,55.15Z" transform="translate(-63.973 -55)" fill="#ebebeb"/>
      <rect id="Rectangle_10" data-name="Rectangle 10" width="375" height="0.188" transform="translate(0 245.55)" fill="#ebebeb"/>
      <path id="Path_24" data-name="Path 24" d="M123.87,117.27l5.467-3.51,2.985,5.775,6.495-.3-.3,6.5,5.775,2.985-3.51,5.468,3.51,5.475-5.775,2.985.3,6.495-6.495-.3-2.985,5.775-5.467-3.51-5.475,3.51-2.985-5.775-6.5.3.3-6.495-5.775-2.985,3.51-5.475-3.51-5.468,5.775-2.985-.3-6.5,6.5.3,2.985-5.775Z" transform="translate(-25.86 -69.69)" fill="#e6e6e6"/>
      <path id="Path_25" data-name="Path 25" d="M125.557,147.5l-6.5-6.5a1.9,1.9,0,0,1,0-2.693h0a1.9,1.9,0,0,1,2.692,0l3.81,3.81,7.958-7.957a1.9,1.9,0,0,1,2.692,0h0a1.9,1.9,0,0,1,0,2.692Z" transform="translate(-29.624 -74.649)" fill="#fafafa"/>
      <path id="Path_26" data-name="Path 26" d="M396.52,194.063l4.29-2.753,2.34,4.53,5.1-.24-.24,5.092,4.53,2.34-2.753,4.3,2.753,4.29-4.53,2.34.24,5.093-5.1-.233-2.34,4.53-4.29-2.752-4.29,2.752-2.34-4.53-5.092.233.232-5.093-4.53-2.34,2.753-4.29-2.753-4.3,4.53-2.34L384.8,195.6l5.092.24,2.34-4.53Z" transform="translate(-95.125 -89.078)" fill="#e6e6e6"/>
      <path id="Path_27" data-name="Path 27" d="M397.846,217.772l-5.1-5.1a1.5,1.5,0,0,1,0-2.107h0a1.5,1.5,0,0,1,2.115,0l3,3,6.24-6.24a1.5,1.5,0,0,1,2.115,0h0a1.5,1.5,0,0,1,0,2.115Z" transform="translate(-98.078 -92.972)" fill="#fafafa"/>
      <path id="Path_28" data-name="Path 28" d="M129.646,281.031l8.363,4.268a3.563,3.563,0,0,0,4.215-.75l6.4-6.87a3.532,3.532,0,0,0,.9-3l-3.322-18.87a5.678,5.678,0,0,0-6.57-4.6l-10.59,1.867a5.67,5.67,0,0,0-4.6,6.57l3.323,18.862A3.562,3.562,0,0,0,129.646,281.031Zm9.525-1.5a1.785,1.785,0,1,1-1.44,2.063A1.785,1.785,0,0,1,139.171,279.531Z" transform="translate(-31.088 -104.031)" fill="#e6e6e6"/>
      <rect id="Rectangle_11" data-name="Rectangle 11" width="16.432" height="1.777" transform="translate(115.148 168.298) rotate(170)" fill="#fafafa"/>
      <rect id="Rectangle_12" data-name="Rectangle 12" width="16.432" height="1.777" transform="translate(112.408 152.743) rotate(170)" fill="#fafafa"/>
      <path id="Path_29" data-name="Path 29" d="M169.231,120.172l5.76,6.18a3.2,3.2,0,0,0,3.787.668l7.5-3.84a3.173,3.173,0,0,0,1.7-2.288l3-16.965a5.1,5.1,0,0,0-4.133-5.9l-9.517-1.68a5.107,5.107,0,0,0-5.91,4.14l-3,16.958a3.172,3.172,0,0,0,.818,2.73Zm8.5,1.695a1.6,1.6,0,1,1-1.853,1.3A1.6,1.6,0,0,1,177.729,121.867Z" transform="translate(-42.091 -65.317)" fill="#f0f0f0"/>
      <rect id="Rectangle_13" data-name="Rectangle 13" width="14.775" height="1.598" transform="translate(143.841 52.615) rotate(-170)" fill="#fafafa"/>
      <rect id="Rectangle_14" data-name="Rectangle 14" width="14.696" height="1.589" transform="translate(146.656 39.476) rotate(-170.159)" fill="#fafafa"/>
      <path id="Path_30" data-name="Path 30" d="M346.191,101.873h0a7.005,7.005,0,0,0-9.75-1.725l-3,2.078-2.085-3a7.02,7.02,0,0,0-9.75-1.725h0a7.02,7.02,0,0,0-1.725,9.75l10.133,14.467,14.475-10.133A7.013,7.013,0,0,0,346.191,101.873Z" transform="translate(-79.656 -65.311)" fill="#ebebeb"/>
      <path id="Path_31" data-name="Path 31" d="M378.618,104.634h0a3.428,3.428,0,0,0-4.785-.848l-1.455,1.02-1.02-1.455a3.443,3.443,0,0,0-4.785-.848h0a3.45,3.45,0,0,0-.84,4.792l4.957,7.08,7.088-4.957a3.428,3.428,0,0,0,.84-4.785Z" transform="translate(-91.278 -66.722)" fill="#ebebeb"/>
      <path id="Path_32" data-name="Path 32" d="M82.774,197.112a19,19,0,0,0-13.02,23.49c1.882,6.548,13.365,17.52,21.18,24.413a6.368,6.368,0,0,0,10.32-2.955c3-9.982,6.892-25.38,5.018-31.928a18.99,18.99,0,0,0-23.5-13.02Zm7.65,26.677a8.76,8.76,0,1,1,6-10.837,8.76,8.76,0,0,1-6,10.837Z" transform="translate(-17.254 -90.342)" fill="#e0e0e0"/>
      <path id="Path_33" data-name="Path 33" d="M86.743,195.98a18.99,18.99,0,0,0-12.99,23.482c1.882,6.548,13.365,17.528,21.18,24.42a6.367,6.367,0,0,0,10.312-3c3-9.982,6.893-25.372,5.018-31.928a18.982,18.982,0,0,0-23.52-12.975Zm7.65,26.677a8.768,8.768,0,1,1,6-10.845,8.768,8.768,0,0,1-6,10.845Z" transform="translate(-18.253 -90.058)" fill="#f5f5f5"/>
      <path id="Path_34" data-name="Path 34" d="M375.95,132.784A16.5,16.5,0,0,0,355.5,144.116c-1.635,5.708,1.777,19.11,4.372,27.8a5.542,5.542,0,0,0,9,2.572c6.81-6,16.807-15.555,18.443-21.255a16.5,16.5,0,0,0-11.362-20.452Zm-6.682,23.25a7.627,7.627,0,1,1,5.811-.665,7.627,7.627,0,0,1-5.811.665Z" transform="translate(-88.768 -74.284)" fill="#e0e0e0"/>
      <path id="Path_35" data-name="Path 35" d="M379.4,133.784a16.5,16.5,0,0,0-20.452,11.333c-1.635,5.7,1.777,19.11,4.372,27.8a5.542,5.542,0,0,0,9,2.572c6.8-6,16.8-15.555,18.435-21.255A16.5,16.5,0,0,0,379.4,133.784Zm-6.66,23.25a7.627,7.627,0,1,1,9.435-5.25,7.627,7.627,0,0,1-9.435,5.25Z" transform="translate(-89.63 -74.534)" fill="#f5f5f5"/>
    </g>
    <g id="freepik--Shadow--inject-15" transform="translate(42.083 317.027)">
      <ellipse id="freepik--path--inject-15" cx="145.417" cy="8.49" rx="145.417" ry="8.49" fill="#f5f5f5"/>
    </g>
    <g id="freepik--Device--inject-15" transform="translate(127.51 117.892)">
      <path id="Path_36" data-name="Path 36" d="M186.872,187.87H194.9a2.813,2.813,0,0,1,2.85,3.1l-1.5,16.928a3.465,3.465,0,0,1-3.382,3.112h-8.018A2.812,2.812,0,0,1,182,207.895l1.493-16.928A3.465,3.465,0,0,1,186.872,187.87Z" transform="translate(-173.007 -151.11)" fill="#ef7f26"/>
      <path id="Path_37" data-name="Path 37" d="M305.914,183.05h12.54a4.387,4.387,0,0,1,4.44,4.86l-1.545,17.678a5.415,5.415,0,0,1-5.25,4.86H303.514a4.387,4.387,0,0,1-4.432-4.86l1.545-17.678a5.415,5.415,0,0,1,5.288-4.86Z" transform="translate(-202.274 -149.905)" opacity="0.2"/>
      <path id="Path_38" data-name="Path 38" d="M302.484,222.21h12.547a4.388,4.388,0,0,1,4.432,4.86l-1.545,17.678a5.408,5.408,0,0,1-5.288,4.86h-12.54a4.388,4.388,0,0,1-4.44-4.86L297.2,227.07A5.408,5.408,0,0,1,302.484,222.21Z" transform="translate(-201.416 -159.695)" opacity="0.2"/>
      <path id="Path_39" data-name="Path 39" d="M207.136,138.859h69.87a15.855,15.855,0,0,1,16.043,17.587l-14.91,170.378a19.568,19.568,0,0,1-19.118,17.58h-69.87a15.855,15.855,0,0,1-16.042-17.58L188,156.447A19.567,19.567,0,0,1,207.136,138.859Z" transform="translate(-170.763 -138.857)" fill="#ef7f26"/>
      <path id="Path_40" data-name="Path 40" d="M207.136,138.859h69.87a15.855,15.855,0,0,1,16.043,17.587l-14.91,170.378a19.568,19.568,0,0,1-19.118,17.58h-69.87a15.855,15.855,0,0,1-16.042-17.58L188,156.447A19.567,19.567,0,0,1,207.136,138.859Z" transform="translate(-170.763 -138.857)" opacity="0.2"/>
      <path id="Path_41" data-name="Path 41" d="M204.128,138.859h69.877a15.862,15.862,0,0,1,16.043,17.587l-14.91,170.377a19.575,19.575,0,0,1-19.117,17.58h-69.87a15.848,15.848,0,0,1-16.043-17.58L185,156.447A19.59,19.59,0,0,1,204.128,138.859Z" transform="translate(-170.013 -138.857)" fill="#ef7f26"/>
      <path id="Path_42" data-name="Path 42" d="M288.65,157.147l-14.9,170.37A17.25,17.25,0,0,1,256.9,343h-69.87a13.958,13.958,0,0,1-14.13-15.48l14.91-170.37a17.25,17.25,0,0,1,16.838-15.487h69.87a13.965,13.965,0,0,1,14.13,15.488Z" transform="translate(-170.714 -139.557)" fill="#fff"/>
      <g id="Group_17647" data-name="Group 17647" transform="translate(9.418 2.103)" opacity="0.1">
        <path id="Path_43" data-name="Path 43" d="M189.47,343h26.49L258.755,141.66h-33.75L182.57,341.295A14.572,14.572,0,0,0,189.47,343Z" transform="translate(-182.57 -141.66)"/>
        <path id="Path_44" data-name="Path 44" d="M289.342,141.66h-6.42L240.12,343h6.428Z" transform="translate(-196.958 -141.66)"/>
      </g>
      <path id="Path_45" data-name="Path 45" d="M234.522,141a4.5,4.5,0,0,0,4.5,4.965h31.125A5.543,5.543,0,0,0,275.539,141Z" transform="translate(-186.134 -139.392)" fill="#ef7f26"/>
      <path id="Path_46" data-name="Path 46" d="M306.251,149h7.065a.975.975,0,0,1,.975,1.072l-.27,3.075a1.192,1.192,0,0,1-1.163,1.072h-7.065a.967.967,0,0,1-.975-1.073l.27-3.075A1.192,1.192,0,0,1,306.251,149Z" transform="translate(-203.713 -141.392)" fill="#ef7f26"/>
      <path id="Path_47" data-name="Path 47" d="M205.63,149h9.458a1.1,1.1,0,0,1,1.1,1.208l-.248,2.8a1.342,1.342,0,0,1-1.312,1.208h-9.458a1.087,1.087,0,0,1-1.1-1.208l.24-2.805A1.342,1.342,0,0,1,205.63,149Z" transform="translate(-178.527 -141.392)" fill="#ef7f26"/>
      <path id="Path_48" data-name="Path 48" d="M205.63,149h9.458a1.1,1.1,0,0,1,1.1,1.208l-.248,2.8a1.342,1.342,0,0,1-1.312,1.208h-9.458a1.087,1.087,0,0,1-1.1-1.208l.24-2.805A1.342,1.342,0,0,1,205.63,149Z" transform="translate(-178.527 -141.392)" fill="#fff" opacity="0.4"/>
      <path id="Path_49" data-name="Path 49" d="M304,150.16h1.11a.352.352,0,0,1,.36.39l-.232,2.655a.435.435,0,0,1-.427.39H303.7a.352.352,0,0,1-.36-.39l.232-2.655A.435.435,0,0,1,304,150.16Z" transform="translate(-203.344 -141.682)" fill="#ef7f26"/>
      <path id="Path_50" data-name="Path 50" d="M314.062,150.16h1.117a.352.352,0,0,1,.352.39l-.232,2.655a.427.427,0,0,1-.42.39h-1.117a.353.353,0,0,1-.353-.39l.233-2.655A.427.427,0,0,1,314.062,150.16Z" transform="translate(-205.861 -141.682)" fill="#fff"/>
      <path id="Path_51" data-name="Path 51" d="M310.872,150.16h1.117a.352.352,0,0,1,.352.39l-.232,2.655a.428.428,0,0,1-.42.39h-1.117a.353.353,0,0,1-.353-.39l.233-2.655A.427.427,0,0,1,310.872,150.16Z" transform="translate(-205.064 -141.682)" fill="#fff"/>
      <path id="Path_52" data-name="Path 52" d="M327.33,212.94l-1.5,17.423a3.48,3.48,0,0,0,2.8-3.06l.96-11.318A2.79,2.79,0,0,0,327.33,212.94Z" transform="translate(-208.967 -157.377)" fill="#ef7f26"/>
      <path id="Path_53" data-name="Path 53" d="M327.33,212.94l-1.5,17.423a3.48,3.48,0,0,0,2.8-3.06l.96-11.318A2.79,2.79,0,0,0,327.33,212.94Z" transform="translate(-208.967 -157.377)" opacity="0.2"/>
      <path id="Path_54" data-name="Path 54" d="M329.5,187.87,328,205.292a3.465,3.465,0,0,0,2.8-3.052l.953-11.272a2.805,2.805,0,0,0-2.25-3.1Z" transform="translate(-209.51 -151.11)" fill="#ef7f26"/>
      <path id="Path_55" data-name="Path 55" d="M329.5,187.87,328,205.292a3.465,3.465,0,0,0,2.8-3.052l.953-11.272a2.805,2.805,0,0,0-2.25-3.1Z" transform="translate(-209.51 -151.11)" opacity="0.2"/>
    </g>
    <g id="freepik--speech-bubble-2--inject-15" transform="translate(284.745 194.41)">
      <path id="Path_56" data-name="Path 56" d="M398.883,240.88H384.16a4.5,4.5,0,0,0-4.5,4.5V254.1a4.5,4.5,0,0,0,4.5,4.462h4.207v3.4a.953.953,0,0,0,1.62.668l4.058-4.065h4.838a4.5,4.5,0,0,0,4.463-4.462v-8.753A4.5,4.5,0,0,0,398.883,240.88Z" transform="translate(-379.66 -240.88)" fill="#ef7f26"/>
      <path id="Path_57" data-name="Path 57" d="M396.828,245.94h-7.073c-.067-.592-.105-.885-.172-1.5H385.69c.082.338.128.5.21.84h2.8c.037.247.06.375.1.63.188,1.238.285,1.853.473,3.09.045.337.075.5.128.84.188,1.237.277,1.853.465,3.09.105.668.158,1,.255,1.658h7.8c.075-.338.112-.5.2-.84H390.73c-.038-.323-.06-.488-.1-.818h8.032l.75-3.09c.082-.337.12-.5.21-.84.3-1.237.457-1.852.75-3.09Zm-6.968.833h2.505c0,.908.037,1.357.067,2.25h-2.31Zm.638,5.355c-.112-.908-.165-1.357-.27-2.25h2.25c0,.9.037,1.35.067,2.25Zm4.808,0h-2.033v-2.25h2.25C395.425,250.77,395.387,251.22,395.305,252.128Zm.285-3.1h-2.31v-2.25h2.505C395.71,247.68,395.673,248.13,395.59,249.03Zm2.49,3.1h-2.025c.112-.908.165-1.357.285-2.25h2.25Zm.668-3.1h-2.325c.12-.9.173-1.35.285-2.25h2.505C399.033,247.68,398.935,248.13,398.748,249.03Z" transform="translate(-381.168 -241.77)" fill="#fff"/>
      <path id="Path_58" data-name="Path 58" d="M391.908,259.05a1,1,0,1,0,1,1A1,1,0,0,0,391.908,259.05Z" transform="translate(-382.473 -245.423)" fill="#fff"/>
      <circle id="Ellipse_1" data-name="Ellipse 1" cx="0.99" cy="0.99" r="0.99" transform="translate(15.51 13.635)" fill="#fff"/>
    </g>
    <g id="freepik--speech-bubble-1--inject-15" transform="translate(172.814 131.964)">
      <path id="Path_59" data-name="Path 59" d="M262.737,157.62h-23.37a7.883,7.883,0,0,0-7.7,7.08l-1.208,13.837a6.383,6.383,0,0,0,6.457,7.08h6.69L243.132,191a1.418,1.418,0,0,0,2.467,1.058l7.005-6.4h7.68a7.89,7.89,0,0,0,7.7-7.08l1.207-13.838a6.383,6.383,0,0,0-6.457-7.117Z" transform="translate(-230.419 -157.619)" fill="#ef7f26"/>
      <path id="Path_60" data-name="Path 60" d="M258.37,165.665H247.158l-.075-2.325H240.91c.082.533.128.8.21,1.328h4.455c0,.4.038.6.06,1,.127,1.965.195,2.947.322,4.913,0,.525.053.795.083,1.327.127,1.958.195,2.94.315,4.9.075,1.05.1,1.575.172,2.625h12.315l.428-1.327H247.547v-1.3H260.3c.66-1.965.99-2.947,1.643-4.9l.443-1.327c.66-1.965.99-2.947,1.642-4.913Zm-11.175,1.328h3.975c-.083,1.432-.12,2.145-.2,3.585h-3.66Zm.27,8.49-.112-3.578h3.54c-.083,1.433-.128,2.145-.21,3.578Zm7.628,0h-3.217c.127-1.433.195-2.145.322-3.578h3.54C255.482,173.337,255.355,174.05,255.092,175.482Zm.885-4.9h-3.66c.135-1.44.2-2.152.322-3.585h3.983C256.36,168.425,256.233,169.137,255.977,170.585Zm3.525,4.9h-3.218l.75-3.577h3.533c-.413,1.425-.63,2.137-1.065,3.57Zm1.5-4.9h-3.675c.308-1.44.458-2.152.75-3.585h3.975c-.42,1.425-.637,2.137-1.065,3.585Z" transform="translate(-233.042 -159.049)" fill="#fff"/>
      <path id="Path_61" data-name="Path 61" d="M248.7,186.46a1.755,1.755,0,0,0-1.717,1.575,1.425,1.425,0,0,0,1.44,1.575,1.755,1.755,0,0,0,1.717-1.575,1.425,1.425,0,0,0-1.44-1.575Z" transform="translate(-234.559 -164.829)" fill="#fff"/>
      <path id="Path_62" data-name="Path 62" d="M263.637,186.46a1.747,1.747,0,0,0-1.71,1.575,1.425,1.425,0,0,0,1.44,1.575,1.748,1.748,0,0,0,1.71-1.575,1.425,1.425,0,0,0-1.44-1.575Z" transform="translate(-238.294 -164.829)" fill="#fff"/>
    </g>
    <g id="freepik--character-2--inject-15" transform="translate(188.377 167.446)">
      <rect id="Rectangle_15" data-name="Rectangle 15" width="26.722" height="26.722" transform="translate(6.825 62.439)" fill="#ef7f26"/>
      <rect id="Rectangle_16" data-name="Rectangle 16" width="16.41" height="26.722" transform="translate(33.54 62.439)" fill="#ef7f26"/>
      <path id="Path_63" data-name="Path 63" d="M280.182,279.24H253.46l5.107,6.705h26.715Z" transform="translate(-251.743 -223.506)" fill="#ef7f26"/>
      <rect id="Rectangle_17" data-name="Rectangle 17" width="16.41" height="26.722" transform="translate(33.54 62.439)" fill="#fff" opacity="0.3"/>
      <path id="Path_64" data-name="Path 64" d="M280.182,279.24H253.46l5.107,6.705h26.715Z" transform="translate(-251.743 -223.506)" fill="#fff" opacity="0.4"/>
      <path id="Path_65" data-name="Path 65" d="M300.728,279.24h16.41l-4.83,6.705H295.89Z" transform="translate(-262.35 -223.506)" fill="#ef7f26"/>
      <rect id="Rectangle_18" data-name="Rectangle 18" width="26.722" height="26.722" transform="translate(6.825 62.439)" fill="#fff" opacity="0.6"/>
      <path id="Path_66" data-name="Path 66" d="M300.728,279.24h16.41l-4.83,6.705H295.89Z" transform="translate(-262.35 -223.506)" fill="#fff" opacity="0.2"/>
      <rect id="Rectangle_19" data-name="Rectangle 19" width="67.35" height="67.35" transform="translate(41.385 88.501)" fill="#ef7f26"/>
      <rect id="Rectangle_20" data-name="Rectangle 20" width="67.35" height="67.35" transform="translate(41.385 88.501)" fill="#fff" opacity="0.4"/>
      <rect id="Rectangle_21" data-name="Rectangle 21" width="41.37" height="67.35" transform="translate(0 88.501)" fill="#ef7f26"/>
      <rect id="Rectangle_22" data-name="Rectangle 22" width="41.37" height="67.35" transform="translate(0 88.501)" fill="#fff" opacity="0.6"/>
      <path id="Path_67" data-name="Path 67" d="M268.21,322.93v18.09l1.643.863,1.418-1.178,2.242,1.178,2.13-1.178,1.65,1.178,1.89-1.178,1.073.968V322.93Z" transform="translate(-255.43 -234.429)" fill="#fff" opacity="0.5"/>
      <path id="Path_68" data-name="Path 68" d="M280.255,406.41V388.32l-1.643-.87-1.417,1.185-2.242-1.185-2.13,1.185-1.65-1.185-1.89,1.185-1.073-.967V406.41Z" transform="translate(-255.43 -250.559)" fill="#fff" opacity="0.5"/>
      <path id="Path_69" data-name="Path 69" d="M343,358.943c.383,1.538.57,2.31.953,3.848.1.412.15.622.255,1.043.382,1.537.57,2.31.952,3.848h9.99c-.052.4-.075.607-.12,1.012h-9.2c.1.42.142.63.24,1.043h9.683l.315-2.055c.232-1.538.352-2.31.585-3.848.068-.42.1-.63.158-1.043.232-1.538.352-2.31.585-3.848.053-.315.075-.472.12-.787H361c.1-.412.15-.622.255-1.035h-4.838c-.09.75-.135,1.087-.218,1.822Zm12.75,3.848h-2.865c0-1.125.045-1.687.082-2.812h3.113C355.915,361.1,355.855,361.665,355.75,362.79Zm-3,3.847c0-1.125.052-1.687.082-2.8h2.775l-.338,2.8Zm-3.75-2.8h2.768v2.8H349.24C349.173,365.512,349.12,364.95,349,363.833Zm-.352-3.855h3.112v2.813h-2.835c-.1-1.125-.158-1.687-.255-2.812Zm-3.45,3.855h2.775c.135,1.117.21,1.68.353,2.8H345.8Zm-.825-3.855H347.5c.135,1.125.21,1.688.345,2.813H344.98Z" transform="translate(-274.128 -242.976)" fill="#fff"/>
      <circle id="Ellipse_2" data-name="Ellipse 2" cx="1.237" cy="1.237" r="1.237" transform="translate(79.755 127.734)" fill="#fff"/>
      <circle id="Ellipse_3" data-name="Ellipse 3" cx="1.237" cy="1.237" r="1.237" transform="translate(70.972 127.734)" fill="#fff"/>
      <g id="Group_17648" data-name="Group 17648" transform="translate(11.565 114.144)" opacity="0.5">
        <path id="Path_70" data-name="Path 70" d="M266.59,358.943c.383,1.538.57,2.31.952,3.848.1.412.15.622.255,1.043.382,1.537.57,2.31.952,3.848h9.99c-.053.4-.075.607-.12,1.012h-9.187c.1.42.143.63.24,1.043h9.652l.315-2.055c.232-1.538.352-2.31.585-3.848.06-.42.1-.63.158-1.043.232-1.538.353-2.31.585-3.848l.12-.787h3.495c.1-.412.15-.622.255-1.035H280c-.09.75-.135,1.087-.218,1.822Zm12.75,3.848h-2.865l.082-2.812h3.09c-.128,1.125-.2,1.688-.323,2.813Zm-3,3.847c.038-1.125.052-1.687.082-2.8H279.2l-.337,2.8Zm-3.713-2.8h2.768v2.8h-2.5c-.12-1.125-.173-1.687-.27-2.8Zm-.36-3.855h3.12v2.813h-2.865Zm-3.442,3.855H271.6l.345,2.8h-2.52ZM268,359.978h3.12c.135,1.125.21,1.688.345,2.813H268.6Z" transform="translate(-266.59 -357.12)" fill="#fff"/>
        <circle id="Ellipse_4" data-name="Ellipse 4" cx="1.237" cy="1.237" r="1.237" transform="translate(10.897 13.59)" fill="#fff"/>
        <circle id="Ellipse_5" data-name="Ellipse 5" cx="1.237" cy="1.237" r="1.237" transform="translate(2.115 13.59)" fill="#fff"/>
      </g>
      <path id="Path_71" data-name="Path 71" d="M360.908,251.47s2.34,16.793,4.44,19.688,11.535,10.9,11.535,10.9l5.962-.87,4,3.75-2.895,2-3.187-1.425a31.178,31.178,0,0,1-5.415.128c-3.045-.187-14.94-8.25-17.13-12.457s-4.665-19.785-4.665-19.785Z" transform="translate(-276.765 -216.564)" fill="#ce7a63"/>
      <path id="Path_72" data-name="Path 72" d="M362.525,253.524l-.6.1c-.412-3.945-2.062-15.93-6.585-12.855-4.342,2.963-3.12,11.37-2.49,14.512l-.75.128.66,2.07,10-1.913Z" transform="translate(-276.402 -213.765)" fill="#ef7f26"/>
      <path id="Path_73" data-name="Path 73" d="M358.783,246.58l-1.1-2.37-3.457,3.48-1.987,3a32.924,32.924,0,0,0,.645,5.587l-.75.128.66,2.07,5.64-1.08A38.318,38.318,0,0,0,358.783,246.58Z" transform="translate(-276.41 -214.749)" opacity="0.2"/>
      <path id="Path_74" data-name="Path 74" d="M361.46,207.19s11.925,2.58,5.587,8.25l-5.25-4.583Z" transform="translate(-278.743 -205.494)" fill="#263238"/>
      <path id="Path_75" data-name="Path 75" d="M379.245,374.435l-7.59,18.592-5.265-2.047,4.245-18.48Z" transform="translate(-279.975 -246.821)" fill="#ce7a63"/>
      <path id="Path_76" data-name="Path 76" d="M371.552,370.75l-2.992,13.027,6.487,1.447,5.115-12.547Z" transform="translate(-280.517 -246.384)" opacity="0.2"/>
      <path id="Path_77" data-name="Path 77" d="M371.708,398.238c.968,2.2,1.62,4.005,5.58,6.353.863.5-.6,2.775-2.753,1.808-3.555-1.605-2.625-1.635-5.67-2.955-2.557-1.133-4.462-1.815-6.548-2.685a.616.616,0,0,1-.15-.09h0A.84.84,0,0,1,362,399.5l3.075-4.207a.5.5,0,0,1,.615-.165l4.98,2.145A2.017,2.017,0,0,1,371.708,398.238Z" transform="translate(-278.835 -252.466)" fill="#263238"/>
      <path id="Path_78" data-name="Path 78" d="M383.284,311.34c-.967,12-18.2,51.668-18.2,51.668l-10.23-2.85s7.815-38.107,12.915-44.415c0,0-1.665,0-4.343.052-9.322.083-30.93.067-37.162-1.59-4.448-1.185-13.74-3.562-11.25-18.442l11.52-.4,13.418-.465S384.649,294.975,383.284,311.34Z" transform="translate(-267.026 -227.421)" fill="#263238"/>
      <path id="Path_79" data-name="Path 79" d="M363.424,315.95c-9.322.082-30.93.067-37.162-1.59-4.448-1.185-13.74-3.562-11.25-18.442l11.52-.4c9.068,1.073,20.918,2.865,29,6.338a12.231,12.231,0,0,1,7.462,8.318,42.5,42.5,0,0,1,.435,5.775Z" transform="translate(-267.026 -227.576)" opacity="0.2"/>
      <path id="Path_80" data-name="Path 80" d="M356.643,374.112l-3.8,18.953-5.707-.263.675-18.952Z" transform="translate(-275.163 -247.159)" fill="#ce7a63"/>
      <path id="Path_81" data-name="Path 81" d="M356.738,374.112l-8.828-.262-.39,11.332,6.952.247Z" transform="translate(-275.258 -247.159)" opacity="0.2"/>
      <path id="Path_82" data-name="Path 82" d="M352.535,398.943c.93,2.25,1.5,4.14,5.5,6.645.855.555-.705,2.842-2.858,1.777-3.57-1.747-2.617-1.74-5.685-3.187-2.588-1.223-4.5-1.98-6.593-2.933l-.157-.075h0a.847.847,0,0,1-.142-1.2l3.262-4.208a.5.5,0,0,1,.623-.15l4.995,2.332A2.018,2.018,0,0,1,352.535,398.943Z" transform="translate(-273.98 -252.587)" fill="#263238"/>
      <path id="Path_83" data-name="Path 83" d="M305.844,296s-3.263,11.723,2.13,16.35c7.537,6.472,34.77,4.5,34.77,4.5-4.7,15.052-6.8,44.955-6.8,44.955h10.207s13.905-40.9,11.85-51.48-38.535-14.318-38.535-14.318Z" transform="translate(-264.594 -227.696)" fill="#263238"/>
      <path id="Path_84" data-name="Path 84" d="M367.06,381.607l11.58,2.918L381,379.568l-12.72-3.608Z" transform="translate(-280.143 -247.686)" fill="#ef7f26"/>
      <path id="Path_85" data-name="Path 85" d="M344.95,383.947l11.813.608,1.222-5.2-13.035-.607Z" transform="translate(-274.615 -248.384)" fill="#ef7f26"/>
      <path id="Path_86" data-name="Path 86" d="M340.666,263.811c3-8.843,6.75-15.57,7.185-23.108-10.267-14.82-30.345-6.06-30.345-6.06a99.29,99.29,0,0,0-11.34,45.375c27.607,0,29.19-.473,29.19-.473S335.454,275.668,340.666,263.811Z" transform="translate(-264.916 -211.714)" fill="#ef7f26"/>
      <path id="Path_87" data-name="Path 87" d="M339.81,234.92c.443,2.61,1.365,7.32,2.46,8,1.5.915,3.75-.368,3.75-.368s1.822,2.468,3.75.825a10.357,10.357,0,0,0,2.475-3.69,10.65,10.65,0,0,1-2.122,2.58c-1.95,1.635-3.75-.825-3.75-.825s-2.25,1.275-3.75.368C341.632,241.22,340.478,237.493,339.81,234.92Z" transform="translate(-273.33 -212.426)" opacity="0.2"/>
      <path id="Path_88" data-name="Path 88" d="M343.11,230.12l2.738.938L343.7,232.94Z" transform="translate(-274.155 -211.226)" fill="#ef7f26"/>
      <path id="Path_89" data-name="Path 89" d="M343.11,230.12l2.738.938L343.7,232.94Z" transform="translate(-274.155 -211.226)" opacity="0.2"/>
      <path id="Path_90" data-name="Path 90" d="M351.8,232.063l.75,2.25s-3.915,4.1-5.04,4.14-4.425-7.7-4.425-7.7c4.358-1.973,3.953-4.14,3.953-4.14Z" transform="translate(-274.15 -210.349)" fill="#ce7a63"/>
      <path id="Path_91" data-name="Path 91" d="M351.748,236.577c1.155-1.057,2.19-2.13,2.19-2.13l-.75-2.25-4.238-4.9C348.4,229.467,347.856,233.923,351.748,236.577Z" transform="translate(-275.518 -210.521)" opacity="0.2"/>
      <path id="Path_92" data-name="Path 92" d="M353.017,236.78a12.862,12.862,0,0,1-3.06,4.357c-1.957,1.635-3.75-.817-3.75-.817s-2.25,1.268-3.75.36S339,231.447,339,231.447l3.082-1.327,4.245,9,5.723-4.732Z" transform="translate(-273.127 -211.226)" fill="#ef7f26"/>
      <path id="Path_93" data-name="Path 93" d="M348.146,213.928a7.59,7.59,0,0,1,11.347-6.63c5.445,2.932,5.6,11.5,3.975,16.5a7.5,7.5,0,0,1-13.057,2.527c-2.67-3.285-2.325-6.652-2.25-12.435Z" transform="translate(-275.404 -205.272)" fill="#ce7a63"/>
      <path id="Path_94" data-name="Path 94" d="M361.452,221.25c.315,0,.51.457.428.915s-.36.75-.668.75-.5-.458-.427-.915S361.137,221.227,361.452,221.25Z" transform="translate(-278.57 -209.008)" fill="#263238"/>
      <path id="Path_95" data-name="Path 95" d="M368.383,222.549c.323,0,.518.443.443.908s-.367.75-.682.75-.495-.45-.428-.915S368.068,222.512,368.383,222.549Z" transform="translate(-280.303 -209.333)" fill="#263238"/>
      <path id="Path_96" data-name="Path 96" d="M359.662,219.462a2.13,2.13,0,0,1,1.92-.353h0a.27.27,0,0,0,.337-.165h0a.292.292,0,0,0-.165-.353,2.692,2.692,0,0,0-2.46.48h0a.268.268,0,0,0,.368.39Z" transform="translate(-278.174 -208.316)" fill="#263238"/>
      <path id="Path_97" data-name="Path 97" d="M369.607,221.143h0a.277.277,0,0,0,.09-.375,2.8,2.8,0,0,0-2.092-1.418h0a.263.263,0,0,0-.248.2h0a.27.27,0,0,0,.2.33,2.31,2.31,0,0,1,1.68,1.178.263.263,0,0,0,.21.143.3.3,0,0,0,.158-.06Z" transform="translate(-280.215 -208.534)" fill="#263238"/>
      <path id="Path_98" data-name="Path 98" d="M364.5,227.9a2.715,2.715,0,0,0,2.25,0,18.053,18.053,0,0,1-1.5-4.41Z" transform="translate(-279.502 -209.569)" fill="#ba4d3c"/>
      <path id="Path_99" data-name="Path 99" d="M347.45,217.327c-2.25-8.175,1.388-10.305,5.318-11.775s6.112-.06,7.365,1.32c.39.435,1.17,1.74-1.35,1.913a19.749,19.749,0,0,1-4.553-.353,1.658,1.658,0,0,0-1.6.63c-.87,1.14-2.25,3.27-2.25,5.13a4.86,4.86,0,0,1-1.455,3.84Z" transform="translate(-275.067 -204.928)" fill="#263238"/>
      <path id="Path_100" data-name="Path 100" d="M343.567,276.24h0a1.03,1.03,0,1,0,.008,0Z" transform="translate(-274.02 -222.756)" fill="#ef7f26"/>
      <path id="Path_101" data-name="Path 101" d="M340.67,290.2h0a.983.983,0,1,1-.7.285.99.99,0,0,1,.7-.285Z" transform="translate(-273.297 -226.246)" fill="#ef7f26"/>
      <path id="Path_102" data-name="Path 102" d="M346.989,218.986c1.59.285,2.355,2.527,2.37,4s-1.125,2.768-2.527,1.83a5.16,5.16,0,0,1-2.1-3.1C344.424,220.126,345.406,218.671,346.989,218.986Z" transform="translate(-274.546 -208.432)" fill="#ce7a63"/>
      <path id="Path_103" data-name="Path 103" d="M357.387,229.26a28.035,28.035,0,0,1,4.995,1.942,3.142,3.142,0,0,1-3.93.54,1.837,1.837,0,0,1-1.065-2.482Z" transform="translate(-277.684 -211.011)" fill="#263238"/>
      <path id="Path_104" data-name="Path 104" d="M359.76,231.855a3.682,3.682,0,0,0-2.25-.4,2.19,2.19,0,0,0,1,.855,3.66,3.66,0,0,0,2.25.4,2.077,2.077,0,0,0-1-.855Z" transform="translate(-277.755 -211.551)" fill="#a02724"/>
      <path id="Path_105" data-name="Path 105" d="M357.676,229.32a.8.8,0,0,0,.315.788,20.4,20.4,0,0,0,3.293,1.192,1.1,1.1,0,0,0,1.05-.15A32.184,32.184,0,0,0,357.676,229.32Z" transform="translate(-277.793 -211.026)" fill="#fff"/>
      <rect id="Rectangle_23" data-name="Rectangle 23" width="13.575" height="2.183" transform="matrix(-1, -0.005, 0.005, -1, 99.199, 73.386)" fill="#263238"/>
      <path id="Path_106" data-name="Path 106" d="M0,.007H17.25a1.02,1.02,0,0,1,1.02,1.02V2.182H0V.007Z" transform="matrix(-1, -0.005, 0.005, -1, 86.741, 73.329)" fill="#263238"/>
      <path id="Path_107" data-name="Path 107" d="M0,.007H17.25a1.02,1.02,0,0,1,1.02,1.02V2.182H0V.007Z" transform="matrix(-1, -0.005, 0.005, -1, 86.741, 73.329)" fill="#fff" opacity="0.3"/>
      <rect id="Rectangle_24" data-name="Rectangle 24" width="2.183" height="0.772" transform="matrix(-1, -0.005, 0.005, -1, 84.008, 72.605)" fill="#263238"/>
      <rect id="Rectangle_25" data-name="Rectangle 25" width="2.183" height="0.772" transform="matrix(-1, -0.005, 0.005, -1, 80.603, 72.6)" fill="#263238"/>
      <path id="Path_108" data-name="Path 108" d="M369.8,293.263l-1.447-.008,5.775-19.665,1.448.008Z" transform="translate(-280.465 -222.094)" fill="#263238"/>
      <path id="Path_109" data-name="Path 109" d="M369.8,293.263l-1.447-.008,5.775-19.665,1.448.008Z" transform="translate(-280.465 -222.094)" fill="#fff" opacity="0.3"/>
      <path id="Path_110" data-name="Path 110" d="M369.57,293.263l25.478.135,5.775-19.672-25.478-.135Z" transform="translate(-280.77 -222.094)" fill="#263238"/>
      <path id="Path_111" data-name="Path 111" d="M369.57,293.263l25.478.135,5.775-19.672-25.478-.135Z" transform="translate(-280.77 -222.094)" fill="#fff" opacity="0.6"/>
      <path id="Path_112" data-name="Path 112" d="M367.638,299.81l26.52.143c.443,0,.8.495.8,1.1s-.367,1.087-.818,1.087l-26.52-.142c-.442,0-.8-.5-.8-1.1S367.188,299.81,367.638,299.81Z" transform="translate(-280.083 -228.649)" fill="#263238"/>
      <path id="Path_113" data-name="Path 113" d="M367.638,299.81l26.52.143c.443,0,.8.495.8,1.1s-.367,1.087-.818,1.087l-26.52-.142c-.442,0-.8-.5-.8-1.1S367.188,299.81,367.638,299.81Z" transform="translate(-280.083 -228.649)" fill="#fff" opacity="0.5"/>
      <path id="Path_114" data-name="Path 114" d="M366.82,300.9c0,.6.36,1.087.8,1.1s.81-.487.818-1.088-.36-1.1-.8-1.1S366.827,300.3,366.82,300.9Z" transform="translate(-280.083 -228.649)" fill="#263238"/>
      <path id="Path_115" data-name="Path 115" d="M366.82,300.9c0,.6.36,1.087.8,1.1s.81-.487.818-1.088-.36-1.1-.8-1.1S366.827,300.3,366.82,300.9Z" transform="translate(-280.083 -228.649)" fill="#fff" opacity="0.3"/>
      <path id="Path_116" data-name="Path 116" d="M328.99,265.811c-1.223-1.68-2.52-7.905-3.428-13.05l1.178-.225-.277-2.13-.615.112c-.428-4.02-2.093-16.11-6.6-13.5-1.312,2.55-2.467,5.115-3.473,7.65a31.553,31.553,0,0,0,.645,7.552l-.75.135.69,2.152,1.6-.3c.952,4.965,2.34,11.25,3.63,13.74,1.7,3.27,9,8.73,13.89,11.385,5.5-.975,6.75-1.665,6.75-1.665a2.893,2.893,0,0,1-.383-.675l-.885.128S331.173,268.818,328.99,265.811Z" transform="translate(-267.295 -212.859)" opacity="0.2"/>
      <path id="Path_117" data-name="Path 117" d="M329.063,248.38s1.605,17.527,3.645,20.633,11.438,11.88,11.438,11.88l6.225-.615,3.96,4.117-3.1,1.95-3.24-1.643a31.826,31.826,0,0,1-5.625-.127c-3.142-.345-15.09-9.255-17.16-13.755s-3.878-20.753-3.878-20.753Z" transform="translate(-268.71 -215.791)" fill="#ce7a63"/>
      <path id="Path_118" data-name="Path 118" d="M329.9,248.835l-.622.113c-.427-4.1-2.145-16.545-6.832-13.35-4.5,3.075-3.247,11.805-2.588,15.067l-.75.135.69,2.152,10.38-1.987Z" transform="translate(-268.155 -212.466)" fill="#ef7f26"/>
    </g>
    <g id="freepik--Bags--inject-15" transform="translate(63.097 245.665)">
      <path id="Path_119" data-name="Path 119" d="M130.622,327.475l-1.792-.1.42-8.13a10.71,10.71,0,0,1,10.56-10.028,9.525,9.525,0,0,1,9.6,10.125l-.427,8.13-1.793-.1.428-8.13A7.733,7.733,0,0,0,139.81,311a8.888,8.888,0,0,0-8.76,8.332Z" transform="translate(-95.305 -309.219)" fill="#263238"/>
      <path id="Path_120" data-name="Path 120" d="M164.223,328.74h-53l-1.8,62.888,7.86-1.8,7.86,1.8h40.882Z" transform="translate(-90.452 -314.1)" fill="#ef7f26"/>
      <path id="Path_121" data-name="Path 121" d="M164.223,328.74h-53l-1.8,62.888,7.86-1.8,7.86,1.8h40.882Z" transform="translate(-90.452 -314.1)" fill="#fff" opacity="0.6"/>
      <path id="Path_122" data-name="Path 122" d="M125.14,391.628l-7.86-1.8-7.86,1.8,1.8-62.888h12.127Z" transform="translate(-90.452 -314.1)" fill="#ef7f26"/>
      <path id="Path_123" data-name="Path 123" d="M125.14,391.628l-7.86-1.8-7.86,1.8,1.8-62.888h12.127Z" transform="translate(-90.452 -314.1)" fill="#fff" opacity="0.3"/>
      <path id="Path_124" data-name="Path 124" d="M161.271,327.48l-.4-8.13a8.887,8.887,0,0,0-8.768-8.333,7.733,7.733,0,0,0-7.8,8.25l.428,8.13-1.793.1-.428-8.13a9.518,9.518,0,0,1,9.592-10.125,10.7,10.7,0,0,1,10.56,10.027l.428,8.13Z" transform="translate(-98.721 -309.224)" fill="#263238"/>
      <g id="Group_17649" data-name="Group 17649" transform="translate(43.773 0.015)" opacity="0.2">
        <path id="Path_125" data-name="Path 125" d="M161.271,327.48l-.4-8.13a8.887,8.887,0,0,0-8.768-8.333,7.733,7.733,0,0,0-7.8,8.25l.428,8.13-1.793.1-.428-8.13a9.518,9.518,0,0,1,9.592-10.125,10.7,10.7,0,0,1,10.56,10.027l.428,8.13Z" transform="translate(-142.494 -309.239)" fill="#fff"/>
      </g>
      <rect id="Rectangle_26" data-name="Rectangle 26" width="26.655" height="5.992" rx="1.34" transform="translate(40.958 37.605)" fill="#fff"/>
      <path id="Path_126" data-name="Path 126" d="M98.337,355.522l-1.207-.068.285-5.445a7.177,7.177,0,0,1,7.08-6.75,6.382,6.382,0,0,1,6.435,6.75l-.285,5.452-1.2-.067.285-5.445a5.19,5.19,0,0,0-5.25-5.52,5.955,5.955,0,0,0-5.872,5.58Z" transform="translate(-87.38 -317.729)" fill="#263238"/>
      <path id="Path_127" data-name="Path 127" d="M120.865,356.38H85.33l-1.2,42.158L89.4,397.33l5.272,1.207h27.4Z" transform="translate(-84.13 -321.01)" fill="#ef7f26"/>
      <path id="Path_128" data-name="Path 128" d="M94.668,398.538,89.4,397.33l-5.265,1.207,1.2-42.158h8.13Z" transform="translate(-84.13 -321.01)" fill="#ef7f26"/>
      <path id="Path_129" data-name="Path 129" d="M94.668,398.538,89.4,397.33l-5.265,1.207,1.2-42.158h8.13Z" transform="translate(-84.13 -321.01)" opacity="0.2"/>
      <path id="Path_130" data-name="Path 130" d="M118.869,355.542l-.285-5.452a6,6,0,0,0-5.88-5.58,5.175,5.175,0,0,0-5.25,5.52l.285,5.445-1.2.067-.293-5.452a6.39,6.39,0,0,1,6.435-6.75,7.177,7.177,0,0,1,7.08,6.75l.285,5.445Z" transform="translate(-89.657 -317.749)" fill="#263238"/>
      <g id="Group_17650" data-name="Group 17650" transform="translate(16.58 25.59)" opacity="0.2">
        <path id="Path_131" data-name="Path 131" d="M118.869,355.542l-.285-5.452a6,6,0,0,0-5.88-5.58,5.175,5.175,0,0,0-5.25,5.52l.285,5.445-1.2.067-.293-5.452a6.39,6.39,0,0,1,6.435-6.75,7.177,7.177,0,0,1,7.08,6.75l.285,5.445Z" transform="translate(-106.236 -343.34)" fill="#fff"/>
      </g>
      <rect id="Rectangle_27" data-name="Rectangle 27" width="17.865" height="4.012" rx="1.34" transform="translate(14.738 50.768)" fill="#fff"/>
    </g>
    <g id="freepik--character-1--inject-15" transform="translate(83.444 123.813)">
      <path id="Path_132" data-name="Path 132" d="M169.777,402.457l-5.707-.592.285-13.335,5.708.592Z" transform="translate(-124.462 -207.195)" fill="#b55b52"/>
      <path id="Path_133" data-name="Path 133" d="M231.8,377.93l-5.107,2.6-7.68-11.01,5.115-2.6Z" transform="translate(-138.197 -201.793)" fill="#b55b52"/>
      <path id="Path_134" data-name="Path 134" d="M226.448,382.841l5.25-3.75a.457.457,0,0,1,.6.052l3.555,3.75a.923.923,0,0,1-.15,1.365c-1.853,1.275-2.812,1.793-5.122,3.442-1.417,1.013-3.39,2.64-5.348,4.035s-3.45-.465-2.76-1.223c3.1-3.4,2.9-4.9,3.4-6.81A1.5,1.5,0,0,1,226.448,382.841Z" transform="translate(-139.02 -204.813)" fill="#263238"/>
      <path id="Path_135" data-name="Path 135" d="M159.7,405.348l6.413.668a.45.45,0,0,1,.413.435l.2,5.152a.923.923,0,0,1-1.02.923c-2.25-.278-3.292-.518-6.112-.81-1.74-.187-6.75-.525-9.135-.75s-2.25-2.633-1.253-2.745c4.568-.495,7.867-1.5,9.5-2.6a1.5,1.5,0,0,1,.99-.27Z" transform="translate(-120.576 -211.398)" fill="#263238"/>
      <g id="Group_17651" data-name="Group 17651" transform="translate(39.743 165.135)" opacity="0.2">
        <path id="Path_136" data-name="Path 136" d="M164.4,388.53l-.15,6.878,5.715.592.143-6.87Z" transform="translate(-164.25 -372.33)"/>
        <path id="Path_137" data-name="Path 137" d="M224.125,366.93l-5.115,2.6,3.96,5.67,5.115-2.6Z" transform="translate(-177.94 -366.93)"/>
      </g>
      <path id="Path_138" data-name="Path 138" d="M166.064,234.93s-5.918,44.048-6.068,61.553c-.18,18.21,2.13,59.085,2.13,59.085l7.717.8s3.135-40.2,4.38-58.042c1.365-19.462,8.925-62.85,8.925-62.85Z" transform="translate(-123.441 -168.795)" fill="#263238"/>
      <path id="Path_139" data-name="Path 139" d="M170.81,396l-9.06-.945-.36-2.955,10.178.705Z" transform="translate(-123.792 -208.088)" fill="#ef7f26"/>
      <path id="Path_140" data-name="Path 140" d="M179.906,249.117c-6.09,11.332-2.175,32.475-.4,40.35,1.4-11.7,3.607-25.988,5.3-36.473C184.151,247.009,182.733,243.9,179.906,249.117Z" transform="translate(-127.6 -171.679)" opacity="0.6"/>
      <path id="Path_141" data-name="Path 141" d="M176.29,235.19s3.833,46.1,7.35,60.975c4.177,17.663,26.812,45.547,26.812,45.547l6.975-3.547s-15.338-30.99-18.66-40.335c-7.1-19.928.435-49.058-5.332-62.1Z" transform="translate(-127.517 -168.86)" fill="#263238"/>
      <path id="Path_142" data-name="Path 142" d="M228.808,371.267l-8.655,4.4-2.3-2.25,9.945-5.64Z" transform="translate(-137.907 -202.008)" fill="#ef7f26"/>
      <path id="Path_143" data-name="Path 143" d="M224.9,386.7h-.068a.75.75,0,0,1-.6-.458.458.458,0,0,1,0-.465c.368-.637,2.438-.75,2.67-.75a.135.135,0,0,1,.128.083.113.113,0,0,1,0,.142C226.524,385.817,225.616,386.725,224.9,386.7Zm1.688-1.38c-.825.06-1.928.255-2.122.585a.21.21,0,0,0,0,.21.5.5,0,0,0,.4.307C225.249,386.508,225.886,386.065,226.584,385.322Z" transform="translate(-139.486 -206.32)" fill="#ef7f26"/>
      <path id="Path_144" data-name="Path 144" d="M226.8,384.83c-.712,0-2.01-.4-2.25-.945a.465.465,0,0,1,.158-.57.69.69,0,0,1,.57-.187c.832.09,1.792,1.425,1.838,1.5a.143.143,0,0,1,0,.135.135.135,0,0,1-.112.075A.944.944,0,0,1,226.8,384.83Zm-1.6-1.432a.42.42,0,0,0-.322.112c-.127.12-.113.2-.09.263.165.367,1.238.75,1.935.787-.345-.428-.99-1.11-1.5-1.163Z" transform="translate(-139.571 -205.843)" fill="#ef7f26"/>
      <path id="Path_145" data-name="Path 145" d="M159.913,405.86a2.16,2.16,0,0,1-1.35-.495.75.75,0,0,1-.18-.683.45.45,0,0,1,.27-.337c.75-.307,2.895,1.088,3.135,1.253a.127.127,0,0,1,.06.142.135.135,0,0,1-.12.105,9.668,9.668,0,0,1-1.815.015Zm-.9-1.29a.66.66,0,0,0-.255,0,.18.18,0,0,0-.1.143.465.465,0,0,0,.113.442,3.644,3.644,0,0,0,2.535.428,7.59,7.59,0,0,0-2.287-1.013Z" transform="translate(-123.035 -211.138)" fill="#ef7f26"/>
      <path id="Path_146" data-name="Path 146" d="M162.222,405.455h-.053c-.645-.375-1.868-1.748-1.695-2.385.045-.15.172-.33.547-.33a1,1,0,0,1,.75.315,3.842,3.842,0,0,1,.623,2.287.12.12,0,0,1-.068.112A.15.15,0,0,1,162.222,405.455Zm-1.118-2.46h-.082c-.247,0-.27.09-.285.128-.1.382.713,1.44,1.365,1.935a3.21,3.21,0,0,0-.547-1.838.75.75,0,0,0-.45-.225Z" transform="translate(-123.559 -210.747)" fill="#ef7f26"/>
      <path id="Path_147" data-name="Path 147" d="M157.461,200.283a57.9,57.9,0,0,1-7.11,7.875,27.585,27.585,0,0,1-4.5,3.427,12.576,12.576,0,0,1-3.045,1.35,7.259,7.259,0,0,1-2.085.285,6.172,6.172,0,0,1-1.253-.142c-.21-.053-.435-.12-.645-.2a4.408,4.408,0,0,1-.713-.322,4.222,4.222,0,0,1-1.357-1.163,4.958,4.958,0,0,1-.682-1.162,7.282,7.282,0,0,1-.518-1.89,16.343,16.343,0,0,1-.112-3.038,38.415,38.415,0,0,1,.75-5.333A69.91,69.91,0,0,1,139,190l3.1.8c-.442,3.262-.855,6.592-1.1,9.817a38.458,38.458,0,0,0-.12,4.7,9.833,9.833,0,0,0,.247,1.988,1.859,1.859,0,0,0,.188.518c.045.075,0-.158-.435-.435-.158-.075-.1-.067-.143-.075h0a2.5,2.5,0,0,0,.382-.12,7.672,7.672,0,0,0,1.5-.817A27.637,27.637,0,0,0,146,203.53c1.118-1.088,2.19-2.25,3.247-3.473s2.115-2.468,3.082-3.66Z" transform="translate(-117.298 -157.563)" fill="#b55b52"/>
      <path id="Path_148" data-name="Path 148" d="M160.035,192.689c-2.348-.645-9.315,8.25-9.315,8.25l6.66,7.433s7.807-7.05,7.5-10.208C164.587,194.864,163.47,193.664,160.035,192.689Z" transform="translate(-121.124 -158.226)" fill="#ef7f26"/>
      <path id="Path_149" data-name="Path 149" d="M142.852,188.442l-.263-4.673-4.5,3.705s.683,3.622,2.955,4.342l1.4-1.973A2.25,2.25,0,0,0,142.852,188.442Z" transform="translate(-117.967 -156.005)" fill="#b55b52"/>
      <path id="Path_150" data-name="Path 150" d="M138.98,178.63l-3.6,3.315,2.025,4.23,4.507-3.705Z" transform="translate(-117.289 -154.72)" fill="#b55b52"/>
      <path id="Path_151" data-name="Path 151" d="M137.115,187.272l-1.042-.375a1.282,1.282,0,0,1-.81-1.433l1.583-8.415,2.842,1.035-.878,8.13a1.26,1.26,0,0,1-1.695,1.057Z" transform="translate(-117.255 -154.325)" fill="#263238"/>
      <path id="Path_152" data-name="Path 152" d="M146.357,175.087c.18-.487.353-.967.51-1.447a8.37,8.37,0,0,0-2.512-2.58c-.375.922-.75,1.89-1.117,2.888s-.7,1.98-1,2.932a8.43,8.43,0,0,0,3.585-.36C146.005,176.048,146.185,175.575,146.357,175.087Z" transform="translate(-119.004 -152.828)" fill="#263238"/>
      <path id="Path_153" data-name="Path 153" d="M141.585,173.182a17.838,17.838,0,0,0,.952-3.615l-9.322-3.4-2.535,6.967,9.33,3.4A17.917,17.917,0,0,0,141.585,173.182Z" transform="translate(-116.114 -151.605)" fill="#ef7f26"/>
      <path id="Path_154" data-name="Path 154" d="M141.585,173.182a17.838,17.838,0,0,0,.952-3.615l-9.322-3.4-2.535,6.967,9.33,3.4A17.917,17.917,0,0,0,141.585,173.182Z" transform="translate(-116.114 -151.605)" fill="#fff" opacity="0.6"/>
      <path id="Path_155" data-name="Path 155" d="M130.782,162.822c-.42-.157-10.5-10.5-11.625-10.942s-3.847,3.668-5.857,9.187-2.64,10.35-1.418,10.8,15.51-1.058,15.938-.908,1.567-1.5,2.385-3.75S131.315,163,130.782,162.822Z" transform="translate(-111.259 -148.024)" fill="#ef7f26"/>
      <path id="Path_156" data-name="Path 156" d="M130.782,162.822c-.42-.157-10.5-10.5-11.625-10.942s-3.847,3.668-5.857,9.187-2.64,10.35-1.418,10.8,15.51-1.058,15.938-.908,1.567-1.5,2.385-3.75S131.315,163,130.782,162.822Z" transform="translate(-111.259 -148.024)" fill="#fff" opacity="0.4"/>
      <path id="Path_157" data-name="Path 157" d="M117.74,162.679c-2.01,5.52-4.635,9.63-5.857,9.188s-.593-5.25,1.418-10.8,4.635-9.63,5.857-9.187S119.75,157.167,117.74,162.679Z" transform="translate(-111.259 -148.024)" fill="#ef7f26"/>
      <path id="Path_158" data-name="Path 158" d="M115.873,164.433c-.135.368-.263.75-.383,1.087a9,9,0,0,0,2.5,2.16c.285-.69.57-1.418.847-2.168s.518-1.5.75-2.205a9,9,0,0,0-3.3.053A4.713,4.713,0,0,0,115.873,164.433Z" transform="translate(-112.317 -150.858)" fill="#263238"/>
      <path id="Path_159" data-name="Path 159" d="M115.873,164.433c-.135.368-.263.75-.383,1.087a9,9,0,0,0,2.5,2.16c.285-.69.57-1.418.847-2.168s.518-1.5.75-2.205a9,9,0,0,0-3.3.053A4.713,4.713,0,0,0,115.873,164.433Z" transform="translate(-112.317 -150.858)" fill="#fff" opacity="0.7"/>
      <path id="Path_160" data-name="Path 160" d="M159.973,198.908c.345,4.988-.817,7.958-1.643,9.39l.953,1.057a44.4,44.4,0,0,0,6.473-7.29C163.43,198.616,159.583,193.666,159.973,198.908Z" transform="translate(-123.027 -159.218)" opacity="0.2"/>
      <circle id="Ellipse_6" data-name="Ellipse 6" cx="5.663" cy="5.663" r="5.663" transform="translate(57.503)" fill="#263238"/>
      <path id="Path_161" data-name="Path 161" d="M192.295,156.555A3.563,3.563,0,1,1,188.732,153a3.563,3.563,0,0,1,3.563,3.555Z" transform="translate(-129.737 -148.313)" fill="#ef7f26"/>
      <path id="Path_162" data-name="Path 162" d="M172.34,151.361s-7.5-.615-7.5,12.285c0,8.835,4.29,12.922,9.548,9.952,0,0,11.6-.952,12.93-11.565S180.448,147.468,172.34,151.361Z" transform="translate(-124.654 -147.536)" fill="#263238"/>
      <path id="Path_163" data-name="Path 163" d="M160.956,192.178s-2.663,1.155,5.25,34.343l23.25-1.687c-1.08-9.435-1.5-15.263,1.6-35.01a69.083,69.083,0,0,0-9.967-.585,74.729,74.729,0,0,0-10.559.75C166.019,190.753,160.956,192.178,160.956,192.178Z" transform="translate(-123.576 -157.37)" fill="#ef7f26"/>
      <path id="Path_164" data-name="Path 164" d="M182.225,173.49c-.42,3.45-.63,9.75,1.913,11.813,0,0-.675,3.51-6.99,3.975-6.937.5-3.57-3.21-3.57-3.21,3.75-1.178,3.42-3.982,2.572-6.57Z" transform="translate(-126.634 -153.435)" fill="#b55b52"/>
      <path id="Path_165" data-name="Path 165" d="M180.88,176.76l-3.6,3.555a11.085,11.085,0,0,1,.465,1.845c1.433-.315,3.3-2.047,3.345-3.57a5.071,5.071,0,0,0-.21-1.83Z" transform="translate(-127.764 -154.252)" opacity="0.2"/>
      <path id="Path_166" data-name="Path 166" d="M184.9,162.639c-1.3,5.542-1.733,7.92-5.055,10.313-4.995,3.6-11.52.788-11.9-5.033-.345-5.25,1.837-13.425,7.71-14.723a7.77,7.77,0,0,1,9.248,9.443Z" transform="translate(-125.42 -148.314)" fill="#b55b52"/>
      <path id="Path_167" data-name="Path 167" d="M177.444,165.492a.8.8,0,0,1-.675.75c-.292,0-.48-.465-.4-.923a.808.808,0,0,1,.682-.75C177.34,164.57,177.527,165.035,177.444,165.492Z" transform="translate(-127.531 -151.205)" fill="#263238"/>
      <path id="Path_168" data-name="Path 168" d="M170.573,164.325c-.082.45-.382.75-.683.75s-.48-.458-.4-.915.383-.75.683-.75S170.618,163.853,170.573,164.325Z" transform="translate(-125.813 -150.915)" fill="#263238"/>
      <path id="Path_169" data-name="Path 169" d="M170.233,163.3l-1.042-.51S169.6,163.742,170.233,163.3Z" transform="translate(-125.742 -150.76)" fill="#263238"/>
      <path id="Path_170" data-name="Path 170" d="M172.652,166.08a12.383,12.383,0,0,1-2.122,2.64,2,2,0,0,0,1.575.578Z" transform="translate(-126.077 -151.582)" fill="#a02724"/>
      <path id="Path_171" data-name="Path 171" d="M189.979,172.076A4.207,4.207,0,0,1,187.444,174c-1.41.36-2.085-.915-1.665-2.25.375-1.185,1.568-2.8,3-2.58a1.875,1.875,0,0,1,1.2,2.9Z" transform="translate(-129.858 -152.351)" fill="#b55b52"/>
      <path id="Path_172" data-name="Path 172" d="M180.023,164.055a.27.27,0,0,1-.255-.2,3.21,3.21,0,0,0-1.92-1.717.273.273,0,1,1,.173-.517,3.75,3.75,0,0,1,2.25,2.077.27.27,0,0,1-.18.338A.187.187,0,0,1,180.023,164.055Z" transform="translate(-127.86 -150.465)" fill="#263238"/>
      <path id="Path_173" data-name="Path 173" d="M169.325,160.8a.278.278,0,0,1-.128-.51,2.693,2.693,0,0,1,2.475-.165.273.273,0,1,1-.247.487h0a2.123,2.123,0,0,0-1.957.15.307.307,0,0,1-.143.038Z" transform="translate(-125.712 -150.037)" fill="#263238"/>
      <path id="Path_174" data-name="Path 174" d="M177.1,164.473l-1.042-.5S176.48,164.923,177.1,164.473Z" transform="translate(-127.459 -151.055)" fill="#263238"/>
      <path id="Path_175" data-name="Path 175" d="M173.23,172.05a30.194,30.194,0,0,1,5.8-.63,3.418,3.418,0,0,1-3.525,2.49,2,2,0,0,1-2.272-1.86Z" transform="translate(-126.752 -152.917)" fill="#263238"/>
      <path id="Path_176" data-name="Path 176" d="M176.765,173.327a3.975,3.975,0,0,0-2.355.75,2.332,2.332,0,0,0,1.387.322,3.975,3.975,0,0,0,2.355-.75A2.25,2.25,0,0,0,176.765,173.327Z" transform="translate(-127.047 -153.392)" fill="#a02724"/>
      <path id="Path_177" data-name="Path 177" d="M173.49,172.008a.9.9,0,0,0,.705.607,23.083,23.083,0,0,0,3.75-.51,1.2,1.2,0,0,0,.937-.675A34.829,34.829,0,0,0,173.49,172.008Z" transform="translate(-126.817 -152.92)" fill="#fff"/>
      <path id="Path_178" data-name="Path 178" d="M169.24,158.412a10.5,10.5,0,0,0,4.3-3.367s0,3.99,1.628,3.682-.818-3.69-.818-3.69,3.75,1.665,5.033,4.92,2.745,6.81,5.632,5.925,2.25-10.11-2-12.413l-6-1.08-1.77.263a6.645,6.645,0,0,0-2.588.945h0a6.75,6.75,0,0,0-2.67,3.083Z" transform="translate(-125.754 -148.16)" fill="#263238"/>
      <path id="Path_179" data-name="Path 179" d="M186.483,160.924c-.277-.585-1.6-.533-3,.112s-1.418,1.253-1.14,1.838.75.923,2.145.277S186.761,161.509,186.483,160.924Zm-3.217,1.5c-.195-.42-.158-.848.818-1.313s1.927-.495,2.122-.075-.428,1.133-1.4,1.59-1.335.24-1.538-.18Z" transform="translate(-128.995 -150.192)" fill="#ef7f26"/>
      <path id="Path_180" data-name="Path 180" d="M196.746,199.78l-1.762-1.5-1.305.592A19.883,19.883,0,0,0,197,211.96c.113-2.5.345-5.31.75-8.67C197.2,201.265,196.746,199.78,196.746,199.78Z" transform="translate(-131.84 -159.633)" opacity="0.2"/>
      <path id="Path_181" data-name="Path 181" d="M229,221.179l-.953.1-.45-4.3a5.685,5.685,0,0,1,4.71-6.143,5.055,5.055,0,0,1,5.872,4.5l.458,4.3-.952.1-.45-4.3a4.155,4.155,0,0,0-1.59-2.88,4.11,4.11,0,0,0-3.188-.795,4.717,4.717,0,0,0-3.907,5.1Z" transform="translate(-140.338 -162.754)" fill="#263238"/>
      <path id="Path_182" data-name="Path 182" d="M203.793,199c.135.645.315,1.44.487,2.168s.375,1.5.585,2.25c.42,1.5.862,2.947,1.4,4.365a29.579,29.579,0,0,0,4.042,7.725l.158.2.075.1-.09-.09a1.163,1.163,0,0,0-.413-.232c-.225-.06-.217,0-.067,0a5.07,5.07,0,0,0,1.553-.33,27.106,27.106,0,0,0,4.02-1.852c2.722-1.5,5.475-3.21,8.137-4.942l2.077,2.445a58.957,58.957,0,0,1-7.59,6.645,28.4,28.4,0,0,1-4.59,2.76,10.582,10.582,0,0,1-3.15.945,5.46,5.46,0,0,1-2.483-.27,4.5,4.5,0,0,1-1.44-.87c-.105-.1-.218-.2-.308-.3l-.12-.127-.24-.263a25.2,25.2,0,0,1-3.225-4.462,36.665,36.665,0,0,1-2.317-4.763,50.647,50.647,0,0,1-1.68-4.957c-.233-.825-.45-1.658-.645-2.5s-.375-1.658-.525-2.618Z" transform="translate(-132.804 -159.813)" fill="#b55b52"/>
      <path id="Path_183" data-name="Path 183" d="M199.252,189.977c2.378.54,6.54,9.135,6.54,9.135l-9.345,6.338s-3.75-6.457-3-9.54C194.212,192.714,196.537,189.377,199.252,189.977Z" transform="translate(-131.781 -157.539)" fill="#ef7f26"/>
      <path id="Path_184" data-name="Path 184" d="M231.58,210.44l5.43-3-1.14,5.723s-3.51,1.118-5.25-.548Z" transform="translate(-141.099 -161.923)" fill="#b55b52"/>
      <path id="Path_185" data-name="Path 185" d="M243.523,208.215l-1.215,4.747-4.687.21,1.14-5.723Z" transform="translate(-142.849 -161.925)" fill="#b55b52"/>
      <path id="Path_186" data-name="Path 186" d="M244.979,218.672l-.9-4.23a4.717,4.717,0,0,0-5.288-3.645,4.11,4.11,0,0,0-3.412,4.972l.9,4.23-.93.2-.9-4.23a5.055,5.055,0,0,1,4.192-6.113,5.685,5.685,0,0,1,6.375,4.387l.9,4.23Z" transform="translate(-142.026 -162.512)" fill="#263238"/>
      <g id="Group_17652" data-name="Group 17652" transform="translate(92.299 47.287)" opacity="0.3">
        <path id="Path_187" data-name="Path 187" d="M244.979,218.672l-.9-4.23a4.717,4.717,0,0,0-5.288-3.645,4.11,4.11,0,0,0-3.412,4.972l.9,4.23-.93.2-.9-4.23a5.055,5.055,0,0,1,4.192-6.113,5.685,5.685,0,0,1,6.375,4.387l.9,4.23Z" transform="translate(-234.325 -209.799)" fill="#fff"/>
      </g>
      <path id="Path_188" data-name="Path 188" d="M246.717,217.86l-27.818,4.4,4.283,33.15,3.975-1.6,4.275.293,21.45-3.4Z" transform="translate(-138.169 -164.528)" fill="#ef7f26"/>
      <path id="Path_189" data-name="Path 189" d="M246.717,217.86l-27.818,4.4,4.283,33.15,3.975-1.6,4.275.293,21.45-3.4Z" transform="translate(-138.169 -164.528)" fill="#fff" opacity="0.6"/>
      <path id="Path_190" data-name="Path 190" d="M231.432,255.24l-4.275-.293-3.975,1.6L218.9,223.4l6.36-1.005Z" transform="translate(-138.169 -165.66)" fill="#ef7f26"/>
      <path id="Path_191" data-name="Path 191" d="M231.432,255.24l-4.275-.293-3.975,1.6L218.9,223.4l6.36-1.005Z" transform="translate(-138.169 -165.66)" fill="#fff" opacity="0.3"/>
      <rect id="Rectangle_28" data-name="Rectangle 28" width="13.912" height="2.37" rx="1.185" transform="translate(93.192 69.612) rotate(-9)" fill="#fff"/>
    </g>
  </g>
</svg>
