<svg xmlns="http://www.w3.org/2000/svg" width="13.66" height="9.757" viewBox="0 0 13.66 9.757">
  <path id="Path_137" data-name="Path 137" d="M12.2,68.267H1.464A1.464,1.464,0,0,0,0,69.731v6.83a1.464,1.464,0,0,0,1.464,1.464H12.2a1.464,1.464,0,0,0,1.464-1.464v-6.83A1.464,1.464,0,0,0,12.2,68.267Zm.488,8.294a.488.488,0,0,1-.488.488H1.464a.488.488,0,0,1-.488-.488V73.634H12.685Zm0-3.9H.976v-.976H12.685Zm0-1.951H.976v-.976a.488.488,0,0,1,.488-.488H12.2a.488.488,0,0,1,.488.488v.976Z" transform="translate(0 -68.267)" fill="#fff"/>
</svg>
