<svg xmlns="http://www.w3.org/2000/svg" width="20" height="20" viewBox="0 0 20 20">
  <g id="Group" transform="translate(-2 -2)">
    <path id="Vector" d="M2,0H6L8,5,5.5,6.5a11,11,0,0,0,5,5L12,9l5,2v4a2,2,0,0,1-2,2A16,16,0,0,1,0,2,2,2,0,0,1,2,0Z" transform="translate(3 4)" fill="none" stroke="#03b0f5" stroke-linecap="round" stroke-linejoin="round" stroke-width="2"/>
    <path id="Vector-2" data-name="Vector" d="M0,0A2,2,0,0,1,1.414.586,2,2,0,0,1,2,2" transform="translate(15 7)" fill="none" stroke="#03b0f5" stroke-linecap="round" stroke-linejoin="round" stroke-width="2"/>
    <path id="Vector-3" data-name="Vector" d="M0,0A6,6,0,0,1,4.243,1.757,6,6,0,0,1,6,6" transform="translate(15 3)" fill="none" stroke="#03b0f5" stroke-linecap="round" stroke-linejoin="round" stroke-width="2"/>
  </g>
</svg>
