<svg id="logos:google-icon" xmlns="http://www.w3.org/2000/svg" width="24" height="24" viewBox="0 0 24 24">
  <rect id="Rectangle_11" data-name="Rectangle 11" width="24" height="24" fill="#c4c4c4" opacity="0"/>
  <g id="Group_2" data-name="Group 2">
    <path id="Vector" d="M9.825,2.044A8.381,8.381,0,0,0,9.609,0H0V3.711H5.64A4.871,4.871,0,0,1,3.548,6.955l-.019.124,3.038,2.3.21.021A9.666,9.666,0,0,0,9.825,2.044Z" transform="translate(12.234 10.178)" fill="#4285f4"/>
    <path id="Vector-2" data-name="Vector" d="M9.143,8.022A9.889,9.889,0,0,0,15.92,5.6l-3.23-2.445a6.159,6.159,0,0,1-3.548,1A6.148,6.148,0,0,1,3.32,0L3.2.01.041,2.4,0,2.511A10.254,10.254,0,0,0,9.143,8.022Z" transform="translate(3.092 13.978)" fill="#34a853"/>
    <path id="Vector-3" data-name="Vector" d="M4.412,6.515a6.029,6.029,0,0,1-.341-1.978A6.334,6.334,0,0,1,4.4,2.56L4.4,2.427,1.2,0l-.1.049a9.775,9.775,0,0,0,0,8.978Z" transform="translate(2 7.463)" fill="#fbae05"/>
    <path id="Vector-4" data-name="Vector" d="M9.143,3.867A5.742,5.742,0,0,1,13.1,5.356L15.988,2.6A9.96,9.96,0,0,0,9.143,0,10.253,10.253,0,0,0,0,5.511L3.309,8.022A6.174,6.174,0,0,1,9.143,3.867Z" transform="translate(3.092 2)" fill="#eb4335"/>
  </g>
</svg>
