<svg xmlns="http://www.w3.org/2000/svg" width="24" height="24" viewBox="0 0 24 24">
  <g id="vuesax_bold_home" data-name="vuesax/bold/home" transform="translate(-556 -188)">
    <g id="home">
      <g id="Vector" transform="translate(557.83 190)" fill="none">
        <path d="M19,6.01,12.45.77A3.765,3.765,0,0,0,7.9.76L1.35,6.01A3.917,3.917,0,0,0,.04,9.44L1.3,16.98A3.716,3.716,0,0,0,4.87,20h10.6a3.773,3.773,0,0,0,3.58-3.03l1.26-7.54A4.018,4.018,0,0,0,19,6.01ZM10.92,16a.75.75,0,0,1-1.5,0V13a.75.75,0,0,1,1.5,0Z" stroke="none"/>
        <path d="M 10.15903568267822 0.9999980926513672 L 10.15904521942139 0.9999980926513672 C 9.539335250854492 0.9999980926513672 8.959405899047852 1.191669464111328 8.52530574798584 1.540309906005859 L 1.973566055297852 6.791699409484863 C 1.320224761962891 7.312978744506836 0.8862152099609375 8.44922924041748 1.026205062866211 9.275198936462402 L 2.28547477722168 16.81088829040527 C 2.49261474609375 18.01797866821289 3.651975631713867 19.00001907348633 4.869885444641113 19.00001907348633 L 15.46988487243652 19.00001907348633 C 16.66860961914062 19.00001907348633 17.85630035400391 17.99292945861816 18.0643367767334 16.80058288574219 L 19.32235145568848 9.272461891174316 C 19.44649314880371 8.448124885559082 19.01217651367188 7.313097953796387 18.37155723571777 6.787986755371094 L 11.82668590545654 1.552078247070312 C 11.37992572784424 1.196069717407227 10.78767585754395 1.000009536743164 10.15903568267822 0.9999980926513672 M 10.16988563537598 17.75001907348633 C 9.204935073852539 17.75001907348633 8.419885635375977 16.96496963500977 8.419885635375977 16.00001907348633 L 8.419885635375977 13.00001907348633 C 8.419885635375977 12.03506851196289 9.204935073852539 11.25001907348633 10.16988563537598 11.25001907348633 C 11.1348352432251 11.25001907348633 11.91988563537598 12.03506851196289 11.91988563537598 13.00001907348633 L 11.91988563537598 16.00001907348633 C 11.91988563537598 16.96496963500977 11.1348352432251 17.75001907348633 10.16988563537598 17.75001907348633 M 10.15909576416016 0 C 10.98182678222656 9.5367431640625e-06 11.80676078796387 0.2575283050537109 12.44988536834717 0.77001953125 L 18.99988555908203 6.010019302368164 C 19.91988563537598 6.760019302368164 20.4898853302002 8.260019302368164 20.30988502502441 9.430019378662109 L 19.04988479614258 16.97001838684082 C 18.75988578796387 18.64001846313477 17.15988540649414 20.00001907348633 15.46988487243652 20.00001907348633 L 4.869885444641113 20.00001907348633 C 3.159885406494141 20.00001907348633 1.589885711669922 18.67001914978027 1.299884796142578 16.98001861572266 L 0.03988456726074219 9.440018653869629 C -0.1601142883300781 8.260019302368164 0.4098854064941406 6.760019302368164 1.349885940551758 6.010019302368164 L 7.899885177612305 0.7600193023681641 C 8.531785011291504 0.2525100708007812 9.344359397888184 -9.5367431640625e-06 10.15909576416016 0 Z M 10.16988563537598 16.75001907348633 C 10.57988548278809 16.75001907348633 10.91988563537598 16.41001892089844 10.91988563537598 16.00001907348633 L 10.91988563537598 13.00001907348633 C 10.91988563537598 12.59001922607422 10.57988548278809 12.25001907348633 10.16988563537598 12.25001907348633 C 9.759885787963867 12.25001907348633 9.419885635375977 12.59001922607422 9.419885635375977 13.00001907348633 L 9.419885635375977 16.00001907348633 C 9.419885635375977 16.41001892089844 9.759885787963867 16.75001907348633 10.16988563537598 16.75001907348633 Z" stroke="none" fill="#b9b9b9"/>
      </g>
      <path id="Vector-2" data-name="Vector" d="M0,0H24V24H0Z" transform="translate(580 212) rotate(180)" fill="none" opacity="0"/>
    </g>
  </g>
</svg>
