<svg id="Group_56248" data-name="Group 56248" xmlns="http://www.w3.org/2000/svg" width="78.592" height="35.99" viewBox="0 0 78.592 35.99">
  <path id="Path_1" data-name="Path 1" d="M356.21,166.782V160.19h10.44V157H342v3.19h9.86v10.6a14.1,14.1,0,0,1,4.35-4.008" transform="translate(-342 -157)" fill="#fff"/>
  <path id="Path_2" data-name="Path 2" d="M399.127,186.611a11.6,11.6,0,0,1,9.759,4.707l2.767-1.708a11.562,11.562,0,0,0-2.926-3.347,15.118,15.118,0,0,0-9.388-2.947,16.037,16.037,0,0,0-7.769,1.882,2,2,0,0,1-.519.267V189.6a11.911,11.911,0,0,1,8.091-2.978" transform="translate(-376.825 -175.683)" fill="#ef7f26"/>
  <path id="Path_3" data-name="Path 3" d="M382.461,223.531a11.911,11.911,0,0,1-5.844-1.424,9.489,9.489,0,0,1-3.155-2.636h-3.535V204.55c0,.307-.351.624-.545.951a14.071,14.071,0,0,0-1.934,7.3,13.074,13.074,0,0,0,4.4,10.087,14.983,14.983,0,0,0,10.44,3.863q8.547,0,12.615-6.09l-2.746-1.81a11.885,11.885,0,0,1-9.7,4.681" transform="translate(-360.066 -190.76)" fill="#ef7f26"/>
  <path id="Path_4" data-name="Path 4" d="M379.535,209.659c-.345-.58-.667-.885-.951-1.372a10.844,10.844,0,0,1-1.511-5.557,10.141,10.141,0,0,1,3.3-7.83c.014-.014-.023-.026-.023-.041v-4.13a14.1,14.1,0,0,0-4.35,4.008v14.921Z" transform="translate(-366.14 -180.948)" fill="#ef7f26"/>
  <path id="Path_5" data-name="Path 5" d="M386.785,190.62A11.895,11.895,0,1,0,399,202.51a12.057,12.057,0,0,0-12.215-11.89m10.484,11.89a6.388,6.388,0,0,1-.026.708l-5.76-1.128,1.421-.635,4.318.113c.029.307.046.626.046.943m-5.014,2.833-1.206-.948,5.977.313a10.009,10.009,0,0,1-.5,1.581Zm4.237,1.024a10.064,10.064,0,0,1-.87,1.63l-3.216-2.532Zm-19.857-6.409a10,10,0,0,1,.618-1.694l5.583,3.44-1.612.1Zm4.385,1.862-4.707.29a9.962,9.962,0,0,1,.29-2.071Zm14.164-5.414-5.2,3.025.65-1.482,3.379-2.825a10.247,10.247,0,0,1,1.16,1.285m-7.407,8.036.542.119-.017.986-.763-.748Zm-.29.29-.119-.113.215-.226.113.026Zm.162-.412.017-.017-.064-.055-.052.052-.435-.1-.02.084.389.087-.177.186-.357-.351a1.233,1.233,0,0,0,.177-.023l1.209.064v.223Zm.916-1.018h-.041l-.09.041v-.035h-.084l.406-.27.1.116Zm-1.389-2.459.357-.29.113.244-.223.13a1.846,1.846,0,0,0-.247-.073m-.76,0-.087-.041.087-.22.313.223a1.852,1.852,0,0,0-.313.038m-.223.064c-.061.023-.125.049-.186.078l.046-.217.165.078Zm-.29.131a1.757,1.757,0,0,0-.563.51h0l-.447-1.334,1.073.513Zm-.786.989a1.673,1.673,0,0,0-.075.484q0,.061,0,.122l-.209.2-.87-.542,1.16-.267Zm-.055.716a1.379,1.379,0,0,0,.046.218l-.02.026-.171-.107Zm.1.4a1.739,1.739,0,0,0,.174.322l-.383-.154.151-.206Zm.29.461a1.831,1.831,0,0,0,.2.2l-.044.339-1.409.2.711-.96Zm.29.261a1.141,1.141,0,0,0,.13.09v.145l-.171.026Zm.22.142.128.064-.125.017Zm.29.125a1.561,1.561,0,0,0,.229.058l-.5.165v-.18Zm1.291-3.164.159-.093.113.244a1.558,1.558,0,0,0-.273-.151m.528.363h.023v.035l-.032-.035m.487,1.088a1.672,1.672,0,0,0-.023-.215l.139-.58.249.049-.336.763Zm-.072-.409a1.741,1.741,0,0,0-.238-.47l.336.067Zm-.27-.563-.032-.113h.464l-.044.177Zm-.055-.2-.148-.551.925-.539-.27,1.1Zm-.09,0v.081l-.1-.093-.189-.406.157-.09Zm.29,2.091h.014v.078l-.081.035.067-.1m.075-.157a1.6,1.6,0,0,0,.113-.386l.177.194Zm.148-.479.049-.125.328.255-.162.11Zm.087-.206.354-.806,1.276.249-1.267.844Zm.392-.887.11-.249,1.926.049-.7.464Zm-.1-.017-.258-.052.043-.191h.319Zm-.191-.328.29-1.16.757-.441-.711,1.621Zm.319-1.3.215-.87,1.2-1-.626,1.427Zm-.113.064-.983.58-.093-.342,1.285-1.076Zm-1.059.618-.174.1-.119-.258.2-.168Zm-.333-.244-.58-1.235.29-.757.49,1.813Zm-.07.058-.435.365a1.139,1.139,0,0,0-.171-.014l-.435-.31.49-1.224Zm-1.114,0-.226-.157.389-1.871.348.748Zm-.035.087-.093.232-.18-.087.061-.29Zm-.354.1-1.157-.58-.267-.8,1.45,1.035Zm-.74.914-.29.02L384,199.819l.786.377Zm.029.087h0a1.425,1.425,0,0,0-.128.258l-.139-.252Zm-.212.29-1.215.29-.76-.481,1.792-.113Zm-.29.954-.247.238-1.537-.618.847-.2Zm.075.046.186.116-.16.215-.261-.1Zm-.029.406-.774.986-.824.119,1.3-1.241Zm-.7,1.09,1.473-.215-.032.255-1.934.626Zm1.563-.229.186-.026v.194l-.223.073Zm.2.255.078,1.505-.58.58.249-2.03Zm.081,1.621.046.87-.815,1.221.18-1.45Zm0-1.647.551-.18-.023-.067h.043l.479.658-.977,1.024Zm.69-.226h.168l.415.4-.162.174Zm.728-.1a1.763,1.763,0,0,0,.777-.539l.148-.113v.673Zm1.044-.661.107-.046.125.774h-.241Zm.191-.084.29-.133.9,1.006-1.073-.058Zm.383-.171.255-.113,1.531,1.209-.841-.046Zm-.061-.07-.116-.128.174-.116.18.139Zm.133-.29L390.4,202l.818.16-1.937.87Zm1.415-.943.728-.481,1.491.038-1.366.612Zm.85-.58,4.89-3.254a9.358,9.358,0,0,1,.609,1.531l-3.947,1.763Zm-.148,0-2.016-.052.748-1.7,5.322-3.089a10.089,10.089,0,0,1,.945,1.514Zm-.47-3.567,1.694-3.857a10.684,10.684,0,0,1,1.534,1.16Zm-.162.133-1.244,1.041,1.45-5.87a10.54,10.54,0,0,1,1.578.789Zm-1.38,1.122-1.346,1.125-.51-1.885,2.239-5.6a10.027,10.027,0,0,1,1.093.357Zm-1.894-.9-.4-1.47.89-4.31a10.471,10.471,0,0,1,1.7.29Zm-.055.136-.313.786-.371-.786.29-1.427Zm-.74-.125-2.555-5.461a10.882,10.882,0,0,1,1.7-.316l1.16,4.3Zm-.032.142-.4,1.949-1.528-1.082-1.992-5.977a10.564,10.564,0,0,1,1.317-.467Zm-2.056.78-1.314-.928-2.207-4.06a10.655,10.655,0,0,1,1.569-.87Zm.046.139.29.835-.818-.392-.725-1.334Zm.4,2.372-1.873.119-5.69-3.515a10.221,10.221,0,0,1,.731-1.27l5.818,2.807Zm-1.9.206.757.467-.87.206-1.424-.58Zm1.485,1.415-1.349,1.3-6.351.928a10.148,10.148,0,0,1-.319-1.395l6.409-1.485ZM383,204.6l-1.117,1.067-4.443,1.45a10.02,10.02,0,0,1-.661-1.6Zm.145-.023.87-.125-.513.7-1.415.458Zm.4.644,2.01-.65-.258,2.094-4.225,4.405a10.532,10.532,0,0,1-1.212-.893Zm1.74,1.589-.186,1.511L382.69,211.9a10.732,10.732,0,0,1-1.531-.783Zm-.206,1.7-.513,3.964a10.73,10.73,0,0,1-1.8-.545Zm.107-.162.844-1.264.29,5.617a11.308,11.308,0,0,1-1.644-.2Zm.87-2.355,1.021-1.07.148.2L386.1,206.82Zm1.082-1.134.174-.18.131.125-.165.247Zm.368,0,.809.795v.812l-.972-1.346Zm.87,1.871.9,1.244.687,4.254a10.466,10.466,0,0,1-1.682.371Zm1.012,1.4,2.413,3.344a10.729,10.729,0,0,1-1.74.734Zm-.029-.189-.241-1.491,4.153,4.06a10.633,10.633,0,0,1-1.395.9Zm-.116-.16-.87-1.2.014-.844.618.606Zm-.85-2.161.017-1.053.325.072.252,1.56Zm.02-1.143v-.235l.255.014.046.29Zm.351-.218,1.14.061.548.609-1.639-.363Zm1.262.067.87.046,1.16.914-1.465-.322Zm.914-.038-1.6-1.256,2.007-.9,5.89,1.16a10.442,10.442,0,0,1-.194,1.322Zm2.149-2.929,3.77-1.688a9.987,9.987,0,0,1,.354,1.8Zm-5.383-9.028-.87,4.13-1.117-4.115c.348-.035.7-.052,1.056-.052a7.038,7.038,0,0,1,.916.038m-6.885,1.778,2.117,3.9-3.683-2.61a10.474,10.474,0,0,1,1.566-1.3m-1.63,1.36,3.843,2.714.751,1.383-5.707-2.743a10.165,10.165,0,0,1,1.114-1.354m-2.877,6.719,4.9-.307,1.479.6-6.279,1.45a10.211,10.211,0,0,1-.1-1.45v-.307m1.16,4.982,4.263-1.378-3.164,3.036a10.217,10.217,0,0,1-1.1-1.659m1.16,1.726,3.3-3.164,1.47-.476-3.585,4.852a10.376,10.376,0,0,1-1.183-1.212m7.769,3.8-.29-5.745,1.16-1.757,1.021,1.415-.1,6a11.138,11.138,0,0,1-1.4.09h-.394m6.946-2.233-4.246-4.159-.267-1.647,1.723.383,3.935,4.385a10.247,10.247,0,0,1-1.16,1.038m1.206-1.1-3.831-4.263,1.525.339,3.358,2.645a9.959,9.959,0,0,1-1.032,1.305" transform="translate(-365.124 -180.87)" fill="#fff"/>
  <path id="Path_6" data-name="Path 6" d="M129.775,57.159h-2.4v7.03H125.75v-7.03h-2.39V55.81h6.415Z" transform="translate(-87.584 -39.625)" fill="#ef7f26"/>
  <path id="Path_7" data-name="Path 7" d="M494.583,220.535a5.241,5.241,0,0,1-2.366.461,3.962,3.962,0,0,1-2.97-1.134,4.16,4.16,0,0,1-1.1-3.028,4.44,4.44,0,0,1,1.235-3.242,4.246,4.246,0,0,1,3.17-1.259,5.527,5.527,0,0,1,2.03.325v1.581a3.77,3.77,0,0,0-1.934-.493,2.639,2.639,0,0,0-2.03.824,3.039,3.039,0,0,0-.766,2.152,2.917,2.917,0,0,0,.731,2.082,2.517,2.517,0,0,0,1.94.78,3.953,3.953,0,0,0,2.065-.545Z" transform="translate(-445.758 -196.284)" fill="#ef7f26"/>
  <rect id="Rectangle_1" data-name="Rectangle 1" width="3.193" height="1.137" transform="translate(50.198 20.762)" fill="#fff"/>
  <path id="Path_8" data-name="Path 8" d="M532.27,221.173v-8.378h2.851a3.439,3.439,0,0,1,2.03.516,1.653,1.653,0,0,1,.728,1.436,1.8,1.8,0,0,1-.426,1.186,2.32,2.32,0,0,1-1.16.74h0a2.3,2.3,0,0,1,1.409.661,1.879,1.879,0,0,1,.525,1.354,2.224,2.224,0,0,1-.809,1.8,3.283,3.283,0,0,1-2.163.67Zm1.621-7.131v2.2h.87a1.537,1.537,0,0,0,1.024-.31,1.073,1.073,0,0,0,.368-.87q0-1.012-1.45-1.012Zm0,3.448v2.436h1.117a1.7,1.7,0,0,0,1.117-.331,1.125,1.125,0,0,0,.4-.916c0-.792-.522-1.189-1.572-1.189Z" transform="translate(-477.09 -196.609)" fill="#fff"/>
  <path id="Path_9" data-name="Path 9" d="M216.441,57.095h-.74v5.812h.74v1.282H213.35V62.907h.728V57.095h-.728V55.81h3.091Z" transform="translate(-151.477 -39.625)" fill="#fff"/>
  <path id="Path_10" data-name="Path 10" d="M576.98,221.188h-2.091l-2.668-3.683a2.958,2.958,0,0,1-.22-.409h-.029v4.092H570.35V212.81h1.621v3.962H572a3.84,3.84,0,0,1,.226-.421l2.552-3.541h1.952l-3.12,4Z" transform="translate(-504.126 -196.625)" fill="#fff"/>
  <path id="Path_11" data-name="Path 11" d="M259.129,64.188H254.28V55.81h4.66v1.349H255.9v2.134h2.825v1.343H255.9v2.21h3.228Z" transform="translate(-180.536 -39.625)" fill="#fff"/>
  <path id="Path_12" data-name="Path 12" d="M137.018,91.35h-1.282v3.988h-.49V91.35H133.97V90.9h3.048Z" transform="translate(-95.117 -64.538)" fill="#ef7f26"/>
  <path id="Path_13" data-name="Path 13" d="M490.135,251.986a2.543,2.543,0,0,1-1.221.267,1.958,1.958,0,0,1-1.508-.618,2.253,2.253,0,0,1-.58-1.592,2.384,2.384,0,0,1,.629-1.694,2.126,2.126,0,0,1,1.624-.673,2.593,2.593,0,0,1,1.044.183v.525a2.146,2.146,0,0,0-1.053-.261,1.592,1.592,0,0,0-1.262.534,1.989,1.989,0,0,0-.47,1.366,1.882,1.882,0,0,0,.441,1.3,1.5,1.5,0,0,0,1.183.5,2.2,2.2,0,0,0,1.16-.29Z" transform="translate(-444.824 -221.379)" fill="#ef7f26"/>
  <rect id="Rectangle_2" data-name="Rectangle 2" width="1.688" height="0.383" transform="translate(46.082 28.839)" fill="#ef7f26"/>
  <path id="Path_14" data-name="Path 14" d="M510.12,252.335V247.9h1.238a1.363,1.363,0,0,1,.89.29.908.908,0,0,1,.339.737,1.085,1.085,0,0,1-.2.653,1.056,1.056,0,0,1-.56.38h0a1.1,1.1,0,0,1,.716.339,1.047,1.047,0,0,1,.267.742,1.16,1.16,0,0,1-.4.948,1.5,1.5,0,0,1-1.021.354Zm.484-3.982v1.45h.539a1.018,1.018,0,0,0,.69-.215.734.734,0,0,0,.244-.58c0-.438-.29-.655-.87-.655Zm0,1.905v1.624h.719a1.079,1.079,0,0,0,.719-.223.757.757,0,0,0,.258-.6c0-.534-.365-.8-1.093-.8Z" transform="translate(-461.364 -221.536)" fill="#ef7f26"/>
  <path id="Path_15" data-name="Path 15" d="M180.383,91.329h-.438v3.579h.438v.426H179.02v-.426h.438V91.329h-.438V90.9h1.363Z" transform="translate(-127.103 -64.538)" fill="#ef7f26"/>
  <path id="Path_16" data-name="Path 16" d="M531.364,252.337h-.69l-1.74-2.03a1.476,1.476,0,0,1-.119-.148h0v2.184h-.484V247.9h.484v2.085h0a1.012,1.012,0,0,1,.119-.145l1.688-1.94h.606l-1.923,2.129Z" transform="translate(-474.293 -221.538)" fill="#ef7f26"/>
  <path id="Path_17" data-name="Path 17" d="M201.172,95.334H198.84V90.9h2.23v.45h-1.743v1.505h1.61V93.3h-1.61v1.589h1.844Z" transform="translate(-141.175 -64.538)" fill="#ef7f26"/>
  <path id="Path_18" data-name="Path 18" d="M551,261.456a.328.328,0,0,1,.1-.241.322.322,0,0,1,.232-.1.334.334,0,0,1,.232.58.31.31,0,0,1-.232.1.328.328,0,0,1-.331-.334" transform="translate(-490.388 -230.924)" fill="#ef7f26"/>
  <path id="Path_19" data-name="Path 19" d="M558.762,251.965a2.544,2.544,0,0,1-1.221.267,1.952,1.952,0,0,1-1.505-.618,2.253,2.253,0,0,1-.58-1.592,2.384,2.384,0,0,1,.629-1.7,2.117,2.117,0,0,1,1.624-.673,2.575,2.575,0,0,1,1.041.183v.525a2.129,2.129,0,0,0-1.05-.261,1.6,1.6,0,0,0-1.264.534,1.99,1.99,0,0,0-.47,1.366,1.87,1.87,0,0,0,.444,1.3,1.5,1.5,0,0,0,1.18.5,2.2,2.2,0,0,0,1.16-.29Z" transform="translate(-493.551 -221.357)" fill="#ef7f26"/>
  <path id="Path_20" data-name="Path 20" d="M568.647,249.987a2.445,2.445,0,0,1,.58-1.705,2,2,0,0,1,1.569-.638,1.891,1.891,0,0,1,1.476.624,2.32,2.32,0,0,1,.56,1.61,2.494,2.494,0,0,1-.58,1.708,2.149,2.149,0,0,1-3.045.017,2.32,2.32,0,0,1-.58-1.615m.513-.044a2.03,2.03,0,0,0,.423,1.322,1.4,1.4,0,0,0,1.134.519,1.482,1.482,0,0,0,1.18-.49,2,2,0,0,0,.423-1.346,2.085,2.085,0,0,0-.409-1.366,1.421,1.421,0,0,0-1.16-.493,1.45,1.45,0,0,0-1.16.522,2.01,2.01,0,0,0-.435,1.331" transform="translate(-502.902 -221.354)" fill="#ef7f26"/>
  <path id="Path_21" data-name="Path 21" d="M590.245,252.337v-3a6.7,6.7,0,0,1,.044-.87h-.015a2.393,2.393,0,0,1-.128.418l-1.549,3.434h-.218l-1.543-3.411a2.119,2.119,0,0,1-.128-.441h0c0,.11.023.392.023.847v3.019h-.473V247.9h.635l1.386,3.126a4.4,4.4,0,0,1,.209.522h.017q.044-.122.218-.539l1.418-3.109h.6v4.437Z" transform="translate(-515.422 -221.538)" fill="#ef7f26"/>
</svg>
