<svg id="icon" xmlns="http://www.w3.org/2000/svg" width="32" height="32" viewBox="0 0 32 32">
  <rect id="Rectangle_1600" data-name="Rectangle 1600" width="32" height="32" rx="8" fill="#f0f5ff"/>
  <g id="bell" transform="translate(8 8)">
    <g id="Layer_3" data-name="Layer 3">
      <rect id="Rectangle_684" data-name="Rectangle 684" width="16" height="16" fill="#3337a5" opacity="0"/>
    </g>
    <g id="Layer_2" data-name="Layer 2" transform="translate(2.187 1.333)">
      <path id="Path_591" data-name="Path 591" d="M14.48,10.073,14.427,10a4.133,4.133,0,0,1-1.2-2.913V6.12a4.153,4.153,0,0,0-1.2-2.92A4.187,4.187,0,0,0,9.22,2H9.093A4.253,4.253,0,0,0,4.967,6.327V7.08A4.12,4.12,0,0,1,3.7,10.047a1.333,1.333,0,0,0,.173,2.08,9.6,9.6,0,0,0,2.913,1.247,2.327,2.327,0,0,0,4.593,0,9.667,9.667,0,0,0,2.9-1.2,1.333,1.333,0,0,0,.2-2.1Zm-5.387,4.26a1.333,1.333,0,0,1-1.2-.753,8.507,8.507,0,0,0,1.247.087,8.153,8.153,0,0,0,1.147-.073A1.333,1.333,0,0,1,9.093,14.333Z" transform="translate(-3.28 -2)" fill="#03b0f5"/>
      <path id="Path_592" data-name="Path 592" d="M6,9.29" transform="translate(-4.187 -4.43)" fill="none" stroke="#212121" stroke-linecap="round" stroke-linejoin="round" stroke-width="1.5"/>
    </g>
  </g>
  <circle id="Ellipse_322" data-name="Ellipse 322" cx="4" cy="4" r="4" transform="translate(16 8)" fill="#ef7f26" stroke="#f4f5fb" stroke-width="2"/>
</svg>
