<svg id="Group_67" data-name="Group 67" xmlns="http://www.w3.org/2000/svg" width="12.176" height="16.629" viewBox="0 0 12.176 16.629">
  <path id="Path_62" data-name="Path 62" d="M80.725,14.363,79.84,4.63a.521.521,0,0,0-.519-.473H77.763V3.118a3.118,3.118,0,0,0-6.236,0V4.157H69.967a.519.519,0,0,0-.518.473l-.884,9.732a2.078,2.078,0,0,0,2.07,2.267h8.019a2.078,2.078,0,0,0,2.07-2.267ZM72.566,3.118a2.079,2.079,0,1,1,4.157,0V4.157H72.566Zm6.855,12.134a1.032,1.032,0,0,1-.768.338H70.636A1.039,1.039,0,0,1,69.6,14.456L70.442,5.2h1.084V6.756a.52.52,0,1,0,1.039,0V5.2h4.157V6.756a.52.52,0,0,0,1.039,0V5.2h1.084l.842,9.261A1.026,1.026,0,0,1,79.421,15.252Z" transform="translate(-68.557 0)" fill="#fff"/>
</svg>
