<svg xmlns="http://www.w3.org/2000/svg" width="40.257" height="13" viewBox="0 0 40.257 13">
  <path id="cdnlogo.com_visa" d="M100.82,139.571c-.023,1.811,1.614,2.821,2.847,3.422,1.267.617,1.692,1.012,1.688,1.563-.01.844-1.011,1.216-1.947,1.231a6.8,6.8,0,0,1-3.34-.794l-.589,2.755a9.792,9.792,0,0,0,3.617.667c3.416,0,5.651-1.686,5.663-4.3.013-3.318-4.59-3.5-4.559-4.985.011-.45.44-.93,1.381-1.052a6.124,6.124,0,0,1,3.207.562l.572-2.665a8.717,8.717,0,0,0-3.044-.559c-3.216,0-5.477,1.709-5.5,4.156m14.034-3.926a1.483,1.483,0,0,0-1.384.922l-4.88,11.652H112l.679-1.877h4.172l.394,1.877h3.009l-2.626-12.574Zm.477,3.4.985,4.722h-2.7Zm-18.65-3.4L93.99,148.219h3.253l2.69-12.574Zm-4.812,0L88.482,144.2l-1.37-7.277a1.516,1.516,0,0,0-1.5-1.281H80.077L80,136.01a13.54,13.54,0,0,1,3.209,1.07,1.376,1.376,0,0,1,.772,1.1l2.594,10.035h3.438l5.271-12.574Z" transform="translate(-80 -135.415)" fill="#036cf5" fill-rule="evenodd"/>
</svg>
